<svg width="1856" height="624" viewBox="0 0 1856 624" fill="none" xmlns="http://www.w3.org/2000/svg">
<path d="M134.969 189.328L15.7315 159.127L71.6388 137.63L134.969 189.328Z" fill="url(#paint0_linear_725_12)"/>
<path d="M134.97 189.329L71.6392 137.63L83.9046 82.1238L134.97 189.329Z" fill="url(#paint1_linear_725_12)"/>
<path d="M15.7325 159.099L83.9053 82.0961L71.6399 137.603L15.7325 159.099Z" fill="url(#paint2_linear_725_12)"/>
<path d="M1717.39 609.934L1813.99 497.72L1814.66 545.708L1717.39 609.934Z" fill="url(#paint3_linear_725_12)"/>
<path d="M1717.45 609.353L1814.87 545.454L1853.04 569.93L1717.45 609.353Z" fill="url(#paint4_linear_725_12)"/>
<path d="M1813.28 497.726L1852.9 570.332L1813.78 546.498L1813.28 497.726Z" fill="url(#paint5_linear_725_12)"/>
<path d="M1720.55 80.7178C1730.07 61.5526 1722.25 38.3004 1703.09 28.7825C1683.92 19.2647 1660.67 27.0854 1651.15 46.2506C1641.63 65.4158 1649.45 88.668 1668.62 98.1859C1687.78 107.704 1711.04 99.883 1720.55 80.7178Z" fill="url(#paint6_linear_725_12)"/>
<path d="M1685.73 106.363C1712.97 102.111 1731.61 76.5772 1727.36 49.3319C1723.11 22.0867 1697.58 3.44688 1670.33 7.69876C1643.09 11.9506 1624.45 37.4841 1628.7 64.7293C1632.95 91.9746 1658.48 110.614 1685.73 106.363Z" fill="url(#paint7_radial_725_12)"/>
<path d="M1708.73 96.1539C1723.74 85.4023 1728.87 66.8502 1720.19 54.7167C1711.5 42.5831 1692.28 41.4629 1677.27 52.2145C1662.25 62.9661 1657.12 81.5182 1665.81 93.6517C1674.5 105.785 1693.71 106.906 1708.73 96.1539Z" fill="url(#paint8_radial_725_12)"/>
<path d="M1672.94 90.1819C1694.82 90.1819 1712.55 72.4485 1712.55 50.5731C1712.55 28.6978 1694.82 10.9644 1672.94 10.9644C1651.07 10.9644 1633.33 28.6978 1633.33 50.5731C1633.33 72.4485 1651.07 90.1819 1672.94 90.1819Z" fill="url(#paint9_radial_725_12)"/>
<path d="M184.038 545.809C205.907 542.612 221.4 557.291 218.623 578.591C215.845 599.892 195.761 619.855 173.898 623.08C152.036 626.305 136.525 611.604 139.32 590.292C142.114 568.98 162.175 549.039 184.038 545.809ZM174.587 617.864C193.523 615.075 210.847 597.815 213.269 579.383C215.69 560.952 202.263 548.236 183.355 551.025C164.448 553.814 147.089 571.074 144.673 589.506C142.258 607.937 155.674 620.653 174.587 617.864Z" fill="url(#paint10_linear_725_12)"/>
<path d="M211.645 586.395L211.782 585.971C211.914 585.575 212.035 585.173 212.155 584.766C212.184 584.657 212.218 584.542 212.253 584.427C212.391 583.928 212.523 583.423 212.637 582.924C212.666 582.803 212.689 582.688 212.718 582.574C212.809 582.166 212.89 581.764 212.97 581.357C212.97 581.208 213.022 581.064 213.05 580.921C213.142 580.41 213.223 579.894 213.291 579.383C214.439 570.776 212.104 563.442 207.393 558.324L203.376 553.957C208.087 559.075 210.405 566.426 209.275 575.016C209.212 575.533 209.125 576.043 209.034 576.56C209.034 576.703 208.982 576.847 208.953 576.99C208.879 577.398 208.793 577.805 208.701 578.207C208.701 578.327 208.655 578.442 208.626 578.557C208.506 579.062 208.38 579.561 208.236 580.066C208.236 580.175 208.173 580.29 208.139 580.399C208.024 580.806 207.897 581.208 207.771 581.61C207.725 581.747 207.679 581.891 207.628 582.034C207.467 582.516 207.295 582.998 207.117 583.48V583.526C206.939 583.991 206.744 584.456 206.543 584.915C206.342 585.374 206.119 585.89 205.895 586.372C205.837 586.493 205.786 586.619 205.728 586.74C205.442 587.313 205.155 587.939 204.822 588.53C204.655 588.834 204.483 589.138 204.311 589.442C204.191 589.649 204.082 589.855 203.961 590.062C203.76 590.406 203.548 590.745 203.336 591.083C203.232 591.25 203.135 591.416 203.031 591.577C202.727 592.053 202.412 592.529 202.09 592.994C201.999 593.132 201.901 593.264 201.803 593.402C201.568 593.734 201.333 594.067 201.086 594.4C200.977 594.549 200.862 594.693 200.748 594.842C200.518 595.144 200.283 595.448 200.042 595.754C199.921 595.909 199.795 596.058 199.675 596.208C199.554 596.357 199.365 596.575 199.21 596.781C198.733 597.355 198.24 597.929 197.735 598.457L197.511 598.71C196.957 599.306 196.383 599.88 195.79 600.431L195.359 600.844C194.843 601.343 194.309 601.831 193.77 602.302L193.506 602.543C192.879 603.082 192.24 603.606 191.589 604.115C191.325 604.322 191.061 604.528 190.792 604.729L190.384 605.039C189.931 605.372 189.478 605.699 189.013 606.014L188.875 606.106C188.445 606.399 188.014 606.68 187.578 606.961L187.096 607.265L186.132 607.839L185.421 608.247L184.566 608.723L183.837 609.102C183.573 609.245 183.303 609.377 183.034 609.515L181.92 610.043L181.232 610.358L179.987 610.88L179.413 611.116C179.057 611.253 178.695 611.38 178.34 611.512L177.668 611.753C177.249 611.896 176.831 612.022 176.417 612.154L175.895 612.315C175.321 612.487 174.707 612.648 174.111 612.791L173.778 612.866C173.29 612.981 172.802 613.09 172.315 613.187C171.741 613.296 171.167 613.394 170.593 613.48C170.019 613.566 169.411 613.635 168.826 613.692C168.636 613.692 168.447 613.727 168.252 613.738C167.862 613.772 167.477 613.801 167.104 613.818H166.289H165.337C165.067 613.818 164.803 613.818 164.533 613.818L163.615 613.778L162.823 613.721C162.525 613.692 162.25 613.669 161.934 613.635L161.165 613.531C160.884 613.491 160.591 613.451 160.333 613.4C160.075 613.348 159.679 613.279 159.352 613.21C159.116 613.158 158.875 613.113 158.64 613.055C158.307 612.975 157.986 612.889 157.665 612.797C157.435 612.734 157.206 612.676 156.982 612.608L156.408 612.424C156.115 612.326 155.834 612.229 155.536 612.12C155.346 612.051 155.157 611.971 154.962 611.896C154.675 611.781 154.388 611.667 154.113 611.54L153.665 611.339C153.355 611.19 153.051 611.035 152.747 610.88L152.403 610.697C152.001 610.479 151.611 610.255 151.255 610.014L151.014 609.859C150.704 609.658 150.4 609.457 150.102 609.245L149.792 609.021C149.482 608.792 149.178 608.556 148.879 608.315L148.724 608.189C148.38 607.908 148.053 607.615 147.732 607.311L147.485 607.07C147.175 606.772 146.877 606.496 146.59 606.164L150.607 610.525C150.785 610.72 150.968 610.909 151.18 611.098C151.393 611.288 151.416 611.328 151.53 611.443L151.783 611.684C152.087 611.971 152.397 612.258 152.724 612.522L152.77 612.562L152.925 612.682C153.223 612.929 153.499 613.164 153.837 613.394L154.153 613.618L154.434 613.824L155.06 614.232L155.301 614.386C155.651 614.605 156.001 614.811 156.362 615.012L156.477 615.069L156.827 615.253C157.125 615.408 157.435 615.563 157.745 615.706L158.187 615.913C158.319 615.97 158.445 616.033 158.577 616.085C158.709 616.137 158.887 616.206 159.042 616.269L159.616 616.492C159.903 616.601 160.19 616.699 160.494 616.797L161.067 616.98L161.245 617.038C161.412 617.089 161.584 617.124 161.756 617.17C162.077 617.261 162.399 617.347 162.726 617.428C162.961 617.485 163.202 617.531 163.443 617.583C163.684 617.634 164.092 617.715 164.419 617.772L164.723 617.829L165.251 617.904L166.025 618.002C166.318 618.036 166.599 618.065 166.915 618.088L167.701 618.151C168.005 618.151 168.315 618.179 168.625 618.185H169.428H170.375H171.19H171.419C171.729 618.185 172.039 618.134 172.349 618.111C172.538 618.111 172.722 618.111 172.923 618.065C173.497 618.007 174.07 617.938 174.696 617.852C175.321 617.766 175.803 617.675 176.354 617.571H176.406C176.899 617.474 177.387 617.365 177.869 617.25L178.208 617.175C178.782 617.032 179.396 616.871 179.992 616.699L180.52 616.533C180.933 616.406 181.347 616.28 181.76 616.137C181.983 616.062 182.213 615.976 182.437 615.89C182.793 615.764 183.154 615.637 183.504 615.5L183.527 615.488L183.998 615.293C184.417 615.121 184.835 614.949 185.249 614.765C185.478 614.668 185.702 614.559 185.931 614.455C186.304 614.283 186.677 614.105 187.045 613.922L187.354 613.778L187.854 613.514L188.582 613.13L189.432 612.659L190.143 612.252C190.235 612.194 190.327 612.149 190.413 612.091C190.648 611.953 190.872 611.81 191.102 611.667L191.595 611.362C192.031 611.087 192.462 610.789 192.886 610.507L193.024 610.416C193.483 610.1 193.936 609.779 194.378 609.446L194.786 609.142L195.359 608.688L195.56 608.522C196.207 608.017 196.844 607.495 197.471 606.955L197.54 606.898C197.609 606.841 197.672 606.778 197.735 606.714C198.28 606.244 198.808 605.756 199.33 605.257L199.583 605.022C199.646 604.964 199.698 604.901 199.761 604.844C200.334 604.27 200.908 603.696 201.482 603.122L201.545 603.059L201.712 602.87C202.217 602.296 202.704 601.762 203.186 601.188C203.255 601.102 203.336 601.022 203.41 600.936L203.645 600.638C203.772 600.488 203.892 600.333 204.013 600.184C204.254 599.88 204.489 599.576 204.724 599.266C204.839 599.123 204.948 598.979 205.057 598.83C205.166 598.681 205.166 598.692 205.218 598.618C205.407 598.36 205.596 598.09 205.792 597.826C205.883 597.694 205.981 597.562 206.073 597.424C206.394 596.965 206.698 596.506 206.997 596.036C206.999 596.026 206.999 596.016 206.997 596.007C207.1 595.846 207.192 595.68 207.295 595.519C207.507 595.175 207.72 594.836 207.926 594.486L208.265 593.912C208.42 593.631 208.58 593.339 208.735 593.08L208.781 592.983C209.097 592.409 209.401 591.801 209.688 591.198C209.745 591.078 209.797 590.951 209.854 590.831C210.084 590.349 210.302 589.861 210.508 589.373L210.594 589.178C210.761 588.782 210.922 588.381 211.071 587.985V587.945C211.283 587.371 211.455 586.883 211.645 586.395Z" fill="#FF4FFF"/>
<path d="M139.342 590.292C139.423 589.718 139.52 589.104 139.623 588.513C139.623 588.346 139.681 588.18 139.715 588.014C139.803 587.543 139.901 587.073 140.008 586.602L140.094 586.2C140.232 585.627 140.381 585.053 140.542 584.479C140.582 584.353 140.622 584.221 140.656 584.094C140.794 583.63 140.938 583.159 141.087 582.7C141.138 582.534 141.19 582.373 141.247 582.207C141.437 581.633 141.632 581.059 141.821 580.525V580.479C142.028 579.94 142.246 579.406 142.475 578.873C142.705 578.339 142.963 577.725 143.227 577.191C143.29 577.054 143.353 576.91 143.422 576.767C143.755 576.072 144.105 575.384 144.467 574.701C144.662 574.345 144.863 573.989 145.04 573.634C145.172 573.398 145.299 573.163 145.436 572.928C145.672 572.526 145.918 572.13 146.165 571.734C146.28 571.551 146.389 571.361 146.509 571.16C146.865 570.587 147.227 570.059 147.6 569.519L147.927 569.054C148.202 568.664 148.501 568.274 148.765 567.907L149.149 567.396C149.419 567.04 149.723 566.69 149.97 566.34L150.394 565.818C150.704 565.434 151.025 565.055 151.347 564.67L151.639 564.332C152.045 563.861 152.464 563.396 152.896 562.937C153.531 562.249 154.189 561.577 154.87 560.923L155.369 560.441C155.966 559.867 156.578 559.305 157.206 558.754C157.32 558.657 157.435 558.548 157.55 558.444L157.894 558.157C158.279 557.83 158.663 557.509 159.042 557.193L159.524 556.809L160.637 555.954L161.108 555.598C161.63 555.214 162.158 554.835 162.691 554.451L162.858 554.341C163.351 554.003 163.85 553.676 164.35 553.354L164.923 553.004L166.037 552.327L166.857 551.857L167.844 551.283L168.688 550.841L169.623 550.371C170.048 550.158 170.478 549.957 170.909 549.757C171.172 549.636 171.436 549.51 171.7 549.395C172.177 549.183 172.659 548.982 173.146 548.787L173.812 548.517C174.219 548.356 174.633 548.207 175.046 548.058C175.31 547.966 175.568 547.863 175.832 547.777C176.314 547.61 176.796 547.467 177.278 547.318C177.479 547.255 177.674 547.186 177.852 547.128C178.533 546.926 179.221 546.734 179.918 546.555L180.296 546.469C180.87 546.337 181.444 546.21 182.018 546.101C182.68 545.967 183.34 545.853 183.998 545.757C184.686 545.659 185.369 545.579 186.046 545.51C186.264 545.51 186.482 545.476 186.7 545.459C187.148 545.424 187.595 545.39 188.032 545.367C188.353 545.367 188.663 545.367 188.978 545.367H190.074H191.004L192.071 545.407L192.984 545.482C193.328 545.482 193.672 545.539 194.011 545.579C194.349 545.619 194.585 545.654 194.906 545.7C195.227 545.746 195.543 545.791 195.864 545.849C196.186 545.906 196.622 545.987 197.012 546.067L197.838 546.245C198.217 546.337 198.59 546.44 198.986 546.543C199.25 546.618 199.52 546.687 199.778 546.767C200.036 546.847 200.202 546.905 200.42 546.974C200.759 547.088 201.098 547.203 201.43 547.329C201.648 547.41 201.866 547.496 202.085 547.588C202.417 547.718 202.744 547.855 203.066 548.001L203.582 548.23C203.944 548.402 204.294 548.58 204.644 548.764L205.045 548.97C205.512 549.223 205.965 549.487 206.405 549.762L206.687 549.946C207.042 550.168 207.392 550.403 207.737 550.652L208.098 550.91C208.454 551.174 208.81 551.449 209.154 551.731L209.332 551.874C209.722 552.201 210.107 552.54 210.48 552.89L210.767 553.165C211.122 553.509 211.472 553.854 211.805 554.215L207.788 549.854C207.582 549.63 207.369 549.412 207.157 549.194C206.945 548.976 206.887 548.93 206.75 548.798L206.463 548.523C206.107 548.19 205.746 547.863 205.373 547.553L205.321 547.507L205.137 547.364C204.793 547.083 204.443 546.79 204.087 546.549L203.72 546.285L203.393 546.044C203.158 545.883 202.911 545.734 202.67 545.579L202.394 545.396C201.993 545.143 201.585 544.902 201.166 544.672L201.034 544.604L200.633 544.397C200.283 544.213 199.927 544.036 199.571 543.869L199.055 543.634L198.607 543.427L198.073 543.221C197.855 543.135 197.637 543.043 197.414 542.962C197.081 542.836 196.748 542.721 196.404 542.612C196.191 542.538 195.979 542.463 195.767 542.4L195.56 542.331L194.986 542.176C194.613 542.073 194.24 541.97 193.839 541.878L193.007 541.7C192.634 541.62 192.261 541.545 191.859 541.482C191.744 541.482 191.629 541.43 191.509 541.413C191.388 541.396 191.101 541.362 190.901 541.333C190.602 541.287 190.327 541.247 190.011 541.212C189.696 541.178 189.323 541.143 188.978 541.115C188.634 541.086 188.404 541.063 188.066 541.046C187.727 541.029 187.36 541.011 187.004 541H186.075H184.973L184.032 541.029H183.768C183.412 541.029 183.056 541.08 182.695 541.109L182.041 541.161C181.369 541.23 180.687 541.31 179.998 541.413C179.309 541.516 178.718 541.614 178.081 541.734H178.018C177.444 541.844 176.871 541.97 176.297 542.102L175.918 542.188C175.229 542.354 174.541 542.538 173.858 542.762C173.657 542.825 173.456 542.894 173.255 542.951C172.773 543.1 172.291 543.249 171.809 543.41L171.029 543.697C170.616 543.84 170.203 543.99 169.79 544.15L169.669 544.196C169.485 544.265 169.308 544.351 169.124 544.42C168.642 544.621 168.16 544.816 167.678 545.028C167.414 545.143 167.15 545.269 166.886 545.39C166.456 545.591 166.025 545.791 165.601 546.004L165.239 546.176L164.665 546.474L163.827 546.916L162.841 547.49C162.565 547.645 162.267 547.8 162.02 547.961L161.71 548.144L160.907 548.638C160.717 548.752 160.528 548.867 160.333 548.988C159.828 549.309 159.329 549.642 158.829 549.98L158.675 550.084C158.147 550.445 157.624 550.824 157.108 551.231C156.947 551.346 156.792 551.467 156.637 551.587L155.943 552.109C155.8 552.218 155.662 552.333 155.524 552.448L155.042 552.827C154.652 553.142 154.262 553.464 153.895 553.791L153.55 554.083L153.435 554.181L153.206 554.393C152.579 554.936 151.965 555.497 151.364 556.074L151.071 556.35L150.865 556.556C150.193 557.216 149.533 557.882 148.891 558.571L148.822 558.645C148.42 559.076 148.024 559.517 147.634 559.965C147.537 560.08 147.445 560.195 147.347 560.304C147.118 560.567 146.888 560.831 146.664 561.101C146.573 561.216 146.486 561.331 146.389 561.445L145.97 561.968C145.689 562.318 145.396 562.668 145.149 563.023C145.017 563.196 144.885 563.362 144.759 563.534L144.576 563.775L143.933 564.682C143.824 564.837 143.709 564.992 143.606 565.147C143.223 565.675 142.868 566.208 142.539 566.748V566.788C142.418 566.971 142.309 567.161 142.194 567.362C141.947 567.758 141.701 568.159 141.465 568.561C141.328 568.79 141.201 569.026 141.07 569.261C140.886 569.582 140.702 569.898 140.53 570.219L140.473 570.328C140.09 571.009 139.74 571.698 139.423 572.394C139.354 572.538 139.296 572.681 139.228 572.824C138.969 573.398 138.717 573.938 138.476 574.5C138.476 574.58 138.407 574.655 138.373 574.735C138.183 575.189 138 575.648 137.799 576.112V576.153C137.588 576.707 137.397 577.27 137.225 577.84C137.173 578 137.122 578.161 137.064 578.327C136.915 578.792 136.772 579.257 136.64 579.722C136.599 579.854 136.559 579.98 136.525 580.112C136.364 580.686 136.215 581.26 136.077 581.834C136.043 581.965 136.02 582.097 135.985 582.229C135.882 582.7 135.785 583.171 135.693 583.641C135.693 583.807 135.63 583.974 135.601 584.14C135.498 584.714 135.4 585.328 135.326 585.919C134.023 595.858 136.697 604.356 142.143 610.272L146.159 614.639C140.697 608.729 138.017 600.225 139.342 590.292Z" fill="#FF4FFF"/>
<path d="M211.645 586.395L211.782 585.971C211.914 585.575 212.035 585.173 212.155 584.766C212.184 584.657 212.218 584.542 212.253 584.427C212.391 583.928 212.523 583.423 212.637 582.924C212.666 582.803 212.689 582.688 212.718 582.574C212.809 582.166 212.89 581.764 212.97 581.357C212.97 581.208 213.022 581.064 213.05 580.921C213.142 580.41 213.223 579.894 213.291 579.383C214.439 570.776 212.104 563.442 207.393 558.324L203.376 553.957C208.087 559.075 210.405 566.426 209.275 575.016C209.212 575.533 209.125 576.043 209.034 576.56C209.034 576.703 208.982 576.847 208.953 576.99C208.879 577.398 208.793 577.805 208.701 578.207C208.701 578.327 208.655 578.442 208.626 578.557C208.506 579.062 208.38 579.561 208.236 580.066C208.236 580.175 208.173 580.29 208.139 580.399C208.024 580.806 207.897 581.208 207.771 581.61C207.725 581.747 207.679 581.891 207.628 582.034C207.467 582.516 207.295 582.998 207.117 583.48V583.526C206.939 583.991 206.744 584.456 206.543 584.915C206.342 585.374 206.119 585.89 205.895 586.372C205.837 586.493 205.786 586.619 205.728 586.74C205.442 587.313 205.155 587.939 204.822 588.53C204.655 588.834 204.483 589.138 204.311 589.442C204.191 589.649 204.082 589.855 203.961 590.062C203.76 590.406 203.548 590.745 203.336 591.083C203.232 591.25 203.135 591.416 203.031 591.577C202.727 592.053 202.412 592.529 202.09 592.994C201.999 593.132 201.901 593.264 201.803 593.402C201.568 593.734 201.333 594.067 201.086 594.4C200.977 594.549 200.862 594.693 200.748 594.842C200.518 595.144 200.283 595.448 200.042 595.754C199.921 595.909 199.795 596.058 199.675 596.208C199.554 596.357 199.365 596.575 199.21 596.781C198.733 597.355 198.24 597.929 197.735 598.457L197.511 598.71C196.957 599.306 196.383 599.88 195.79 600.431L195.359 600.844C194.843 601.343 194.309 601.831 193.77 602.302L193.506 602.543C192.879 603.082 192.24 603.606 191.589 604.115C191.325 604.322 191.061 604.528 190.792 604.729L190.384 605.039C189.931 605.372 189.478 605.699 189.013 606.014L188.875 606.106C188.445 606.399 188.014 606.68 187.578 606.961L187.096 607.265L186.132 607.839L185.421 608.247L184.566 608.723L183.837 609.102C183.573 609.245 183.303 609.377 183.034 609.515L181.92 610.043L181.232 610.358L179.987 610.88L179.413 611.116C179.057 611.253 178.695 611.38 178.34 611.512L177.668 611.753C177.249 611.896 176.831 612.022 176.417 612.154L175.895 612.315C175.321 612.487 174.707 612.648 174.111 612.791L173.778 612.866C173.29 612.981 172.802 613.09 172.315 613.187C171.741 613.296 171.167 613.394 170.593 613.48C170.019 613.566 169.411 613.635 168.826 613.692C168.636 613.692 168.447 613.727 168.252 613.738C167.862 613.772 167.477 613.801 167.104 613.818H166.289H165.337C165.067 613.818 164.803 613.818 164.533 613.818L163.615 613.778L162.823 613.721C162.525 613.692 162.25 613.669 161.934 613.635L161.165 613.531C160.884 613.491 160.591 613.451 160.333 613.4C160.075 613.348 159.679 613.279 159.352 613.21C159.116 613.158 158.875 613.113 158.64 613.055C158.307 612.975 157.986 612.889 157.665 612.797C157.435 612.734 157.206 612.676 156.982 612.608L156.408 612.424C156.115 612.326 155.834 612.229 155.536 612.12C155.346 612.051 155.157 611.971 154.962 611.896C154.675 611.781 154.388 611.667 154.113 611.54L153.665 611.339C153.355 611.19 153.051 611.035 152.747 610.88L152.403 610.697C152.001 610.479 151.611 610.255 151.255 610.014L151.014 609.859C150.704 609.658 150.4 609.457 150.102 609.245L149.792 609.021C149.482 608.792 149.178 608.556 148.879 608.315L148.724 608.189C148.38 607.908 148.053 607.615 147.732 607.311L147.485 607.07C147.175 606.772 146.877 606.496 146.59 606.164L150.607 610.525C150.785 610.72 150.968 610.909 151.18 611.098C151.393 611.288 151.416 611.328 151.53 611.443L151.783 611.684C152.087 611.971 152.397 612.258 152.724 612.522L152.77 612.562L152.925 612.682C153.223 612.929 153.499 613.164 153.837 613.394L154.153 613.618L154.434 613.824L155.06 614.232L155.301 614.386C155.651 614.605 156.001 614.811 156.362 615.012L156.477 615.069L156.827 615.253C157.125 615.408 157.435 615.563 157.745 615.706L158.187 615.913C158.319 615.97 158.445 616.033 158.577 616.085C158.709 616.137 158.887 616.206 159.042 616.269L159.616 616.492C159.903 616.601 160.19 616.699 160.494 616.797L161.067 616.98L161.245 617.038C161.412 617.089 161.584 617.124 161.756 617.17C162.077 617.261 162.399 617.347 162.726 617.428C162.961 617.485 163.202 617.531 163.443 617.583C163.684 617.634 164.092 617.715 164.419 617.772L164.723 617.829L165.251 617.904L166.025 618.002C166.318 618.036 166.599 618.065 166.915 618.088L167.701 618.151C168.005 618.151 168.315 618.179 168.625 618.185H169.428H170.375H171.19H171.419C171.729 618.185 172.039 618.134 172.349 618.111C172.538 618.111 172.722 618.111 172.923 618.065C173.497 618.007 174.07 617.938 174.696 617.852C175.321 617.766 175.803 617.675 176.354 617.571H176.406C176.899 617.474 177.387 617.365 177.869 617.25L178.208 617.175C178.782 617.032 179.396 616.871 179.992 616.699L180.52 616.533C180.933 616.406 181.347 616.28 181.76 616.137C181.983 616.062 182.213 615.976 182.437 615.89C182.793 615.764 183.154 615.637 183.504 615.5L183.527 615.488L183.998 615.293C184.417 615.121 184.835 614.949 185.249 614.765C185.478 614.668 185.702 614.559 185.931 614.455C186.304 614.283 186.677 614.105 187.045 613.922L187.354 613.778L187.854 613.514L188.582 613.13L189.432 612.659L190.143 612.252C190.235 612.194 190.327 612.149 190.413 612.091C190.648 611.953 190.872 611.81 191.102 611.667L191.595 611.362C192.031 611.087 192.462 610.789 192.886 610.507L193.024 610.416C193.483 610.1 193.936 609.779 194.378 609.446L194.786 609.142L195.359 608.688L195.56 608.522C196.207 608.017 196.844 607.495 197.471 606.955L197.54 606.898C197.609 606.841 197.672 606.778 197.735 606.714C198.28 606.244 198.808 605.756 199.33 605.257L199.583 605.022C199.646 604.964 199.698 604.901 199.761 604.844C200.334 604.27 200.908 603.696 201.482 603.122L201.545 603.059L201.712 602.87C202.217 602.296 202.704 601.762 203.186 601.188C203.255 601.102 203.336 601.022 203.41 600.936L203.645 600.638C203.772 600.488 203.892 600.333 204.013 600.184C204.254 599.88 204.489 599.576 204.724 599.266C204.839 599.123 204.948 598.979 205.057 598.83C205.166 598.681 205.166 598.692 205.218 598.618C205.407 598.36 205.596 598.09 205.792 597.826C205.883 597.694 205.981 597.562 206.073 597.424C206.394 596.965 206.698 596.506 206.997 596.036C206.999 596.026 206.999 596.016 206.997 596.007C207.1 595.846 207.192 595.68 207.295 595.519C207.507 595.175 207.72 594.836 207.926 594.486L208.265 593.912C208.42 593.631 208.58 593.339 208.735 593.08L208.781 592.983C209.097 592.409 209.401 591.801 209.688 591.198C209.745 591.078 209.797 590.951 209.854 590.831C210.084 590.349 210.302 589.861 210.508 589.373L210.594 589.178C210.761 588.782 210.922 588.381 211.071 587.985V587.945C211.283 587.371 211.455 586.883 211.645 586.395Z" fill="url(#paint11_linear_725_12)"/>
<path d="M139.342 590.292C139.423 589.718 139.52 589.104 139.623 588.513C139.623 588.346 139.681 588.18 139.715 588.014C139.803 587.543 139.901 587.073 140.008 586.602L140.094 586.2C140.232 585.627 140.381 585.053 140.542 584.479C140.582 584.353 140.622 584.221 140.656 584.094C140.794 583.63 140.938 583.159 141.087 582.7C141.138 582.534 141.19 582.373 141.247 582.207C141.437 581.633 141.632 581.059 141.821 580.525V580.479C142.028 579.94 142.246 579.406 142.475 578.873C142.705 578.339 142.963 577.725 143.227 577.191C143.29 577.054 143.353 576.91 143.422 576.767C143.755 576.072 144.105 575.384 144.467 574.701C144.662 574.345 144.863 573.989 145.04 573.634C145.172 573.398 145.299 573.163 145.436 572.928C145.672 572.526 145.918 572.13 146.165 571.734C146.28 571.551 146.389 571.361 146.509 571.16C146.865 570.587 147.227 570.059 147.6 569.519L147.927 569.054C148.202 568.664 148.501 568.274 148.765 567.907L149.149 567.396C149.419 567.04 149.723 566.69 149.97 566.34L150.394 565.818C150.704 565.434 151.025 565.055 151.347 564.67L151.639 564.332C152.045 563.861 152.464 563.396 152.896 562.937C153.531 562.249 154.189 561.577 154.87 560.923L155.369 560.441C155.966 559.867 156.578 559.305 157.206 558.754C157.32 558.657 157.435 558.548 157.55 558.444L157.894 558.157C158.279 557.83 158.663 557.509 159.042 557.193L159.524 556.809L160.637 555.954L161.108 555.598C161.63 555.214 162.158 554.835 162.691 554.451L162.858 554.341C163.351 554.003 163.85 553.676 164.35 553.354L164.923 553.004L166.037 552.327L166.857 551.857L167.844 551.283L168.688 550.841L169.623 550.371C170.048 550.158 170.478 549.957 170.909 549.757C171.172 549.636 171.436 549.51 171.7 549.395C172.177 549.183 172.659 548.982 173.146 548.787L173.812 548.517C174.219 548.356 174.633 548.207 175.046 548.058C175.31 547.966 175.568 547.863 175.832 547.777C176.314 547.61 176.796 547.467 177.278 547.318C177.479 547.255 177.674 547.186 177.852 547.128C178.533 546.926 179.221 546.734 179.918 546.555L180.296 546.469C180.87 546.337 181.444 546.21 182.018 546.101C182.68 545.967 183.34 545.853 183.998 545.757C184.686 545.659 185.369 545.579 186.046 545.51C186.264 545.51 186.482 545.476 186.7 545.459C187.148 545.424 187.595 545.39 188.032 545.367C188.353 545.367 188.663 545.367 188.978 545.367H190.074H191.004L192.071 545.407L192.984 545.482C193.328 545.482 193.672 545.539 194.011 545.579C194.349 545.619 194.585 545.654 194.906 545.7C195.227 545.746 195.543 545.791 195.864 545.849C196.186 545.906 196.622 545.987 197.012 546.067L197.838 546.245C198.217 546.337 198.59 546.44 198.986 546.543C199.25 546.618 199.52 546.687 199.778 546.767C200.036 546.847 200.202 546.905 200.42 546.974C200.759 547.088 201.098 547.203 201.43 547.329C201.648 547.41 201.866 547.496 202.085 547.588C202.417 547.718 202.744 547.855 203.066 548.001L203.582 548.23C203.944 548.402 204.294 548.58 204.644 548.764L205.045 548.97C205.512 549.223 205.965 549.487 206.405 549.762L206.687 549.946C207.042 550.168 207.392 550.403 207.737 550.652L208.098 550.91C208.454 551.174 208.81 551.449 209.154 551.731L209.332 551.874C209.722 552.201 210.107 552.54 210.48 552.89L210.767 553.165C211.122 553.509 211.472 553.854 211.805 554.215L207.788 549.854C207.582 549.63 207.369 549.412 207.157 549.194C206.945 548.976 206.887 548.93 206.75 548.798L206.463 548.523C206.107 548.19 205.746 547.863 205.373 547.553L205.321 547.507L205.137 547.364C204.793 547.083 204.443 546.79 204.087 546.549L203.72 546.285L203.393 546.044C203.158 545.883 202.911 545.734 202.67 545.579L202.394 545.396C201.993 545.143 201.585 544.902 201.166 544.672L201.034 544.604L200.633 544.397C200.283 544.213 199.927 544.036 199.571 543.869L199.055 543.634L198.607 543.427L198.073 543.221C197.855 543.135 197.637 543.043 197.414 542.962C197.081 542.836 196.748 542.721 196.404 542.612C196.191 542.538 195.979 542.463 195.767 542.4L195.56 542.331L194.986 542.176C194.613 542.073 194.24 541.97 193.839 541.878L193.007 541.7C192.634 541.62 192.261 541.545 191.859 541.482C191.744 541.482 191.629 541.43 191.509 541.413C191.388 541.396 191.101 541.362 190.901 541.333C190.602 541.287 190.327 541.247 190.011 541.212C189.696 541.178 189.323 541.143 188.978 541.115C188.634 541.086 188.404 541.063 188.066 541.046C187.727 541.029 187.36 541.011 187.004 541H186.075H184.973L184.032 541.029H183.768C183.412 541.029 183.056 541.08 182.695 541.109L182.041 541.161C181.369 541.23 180.687 541.31 179.998 541.413C179.309 541.516 178.718 541.614 178.081 541.734H178.018C177.444 541.844 176.871 541.97 176.297 542.102L175.918 542.188C175.229 542.354 174.541 542.538 173.858 542.762C173.657 542.825 173.456 542.894 173.255 542.951C172.773 543.1 172.291 543.249 171.809 543.41L171.029 543.697C170.616 543.84 170.203 543.99 169.79 544.15L169.669 544.196C169.485 544.265 169.308 544.351 169.124 544.42C168.642 544.621 168.16 544.816 167.678 545.028C167.414 545.143 167.15 545.269 166.886 545.39C166.456 545.591 166.025 545.791 165.601 546.004L165.239 546.176L164.665 546.474L163.827 546.916L162.841 547.49C162.565 547.645 162.267 547.8 162.02 547.961L161.71 548.144L160.907 548.638C160.717 548.752 160.528 548.867 160.333 548.988C159.828 549.309 159.329 549.642 158.829 549.98L158.675 550.084C158.147 550.445 157.624 550.824 157.108 551.231C156.947 551.346 156.792 551.467 156.637 551.587L155.943 552.109C155.8 552.218 155.662 552.333 155.524 552.448L155.042 552.827C154.652 553.142 154.262 553.464 153.895 553.791L153.55 554.083L153.435 554.181L153.206 554.393C152.579 554.936 151.965 555.497 151.364 556.074L151.071 556.35L150.865 556.556C150.193 557.216 149.533 557.882 148.891 558.571L148.822 558.645C148.42 559.076 148.024 559.517 147.634 559.965C147.537 560.08 147.445 560.195 147.347 560.304C147.118 560.567 146.888 560.831 146.664 561.101C146.573 561.216 146.486 561.331 146.389 561.445L145.97 561.968C145.689 562.318 145.396 562.668 145.149 563.023C145.017 563.196 144.885 563.362 144.759 563.534L144.576 563.775L143.933 564.682C143.824 564.837 143.709 564.992 143.606 565.147C143.223 565.675 142.868 566.208 142.539 566.748V566.788C142.418 566.971 142.309 567.161 142.194 567.362C141.947 567.758 141.701 568.159 141.465 568.561C141.328 568.79 141.201 569.026 141.07 569.261C140.886 569.582 140.702 569.898 140.53 570.219L140.473 570.328C140.09 571.009 139.74 571.698 139.423 572.394C139.354 572.538 139.296 572.681 139.228 572.824C138.969 573.398 138.717 573.938 138.476 574.5C138.476 574.58 138.407 574.655 138.373 574.735C138.183 575.189 138 575.648 137.799 576.112V576.153C137.588 576.707 137.397 577.27 137.225 577.84C137.173 578 137.122 578.161 137.064 578.327C136.915 578.792 136.772 579.257 136.64 579.722C136.599 579.854 136.559 579.98 136.525 580.112C136.364 580.686 136.215 581.26 136.077 581.834C136.043 581.965 136.02 582.097 135.985 582.229C135.882 582.7 135.785 583.171 135.693 583.641C135.693 583.807 135.63 583.974 135.601 584.14C135.498 584.714 135.4 585.328 135.326 585.919C134.023 595.858 136.697 604.356 142.143 610.272L146.159 614.639C140.697 608.729 138.017 600.225 139.342 590.292Z" fill="url(#paint12_linear_725_12)"/>
<defs>
<linearGradient id="paint0_linear_725_12" x1="23.3438" y1="140.196" x2="136.436" y2="185.681" gradientUnits="userSpaceOnUse">
<stop offset="0.18" stop-color="#12B9FF"/>
<stop offset="0.92" stop-color="#8629D5"/>
</linearGradient>
<linearGradient id="paint1_linear_725_12" x1="68.9023" y1="119.415" x2="149.972" y2="152.021" gradientUnits="userSpaceOnUse">
<stop stop-color="#0C6DE0"/>
<stop offset="0.21" stop-color="#175CD5"/>
<stop offset="0.64" stop-color="#3530B7"/>
<stop offset="1" stop-color="#52059B"/>
</linearGradient>
<linearGradient id="paint2_linear_725_12" x1="35.06" y1="167.704" x2="74.9668" y2="78.1067" gradientUnits="userSpaceOnUse">
<stop offset="0.18" stop-color="#7DEBF9"/>
<stop offset="1" stop-color="#645AFF"/>
</linearGradient>
<linearGradient id="paint3_linear_725_12" x1="1723.34" y1="615.707" x2="1826.71" y2="510.092" gradientUnits="userSpaceOnUse">
<stop offset="0.26" stop-color="#FFB1FF"/>
<stop offset="0.58" stop-color="#FF84FF"/>
<stop offset="1" stop-color="#FF4FFF"/>
</linearGradient>
<linearGradient id="paint4_linear_725_12" x1="1760.33" y1="565.38" x2="1810.13" y2="613.94" gradientUnits="userSpaceOnUse">
<stop stop-color="#FF4FFF"/>
<stop offset="0.65" stop-color="#F81A94"/>
<stop offset="1" stop-color="#F5005E"/>
</linearGradient>
<linearGradient id="paint5_linear_725_12" x1="1801.53" y1="510.937" x2="1857.39" y2="564.739" gradientUnits="userSpaceOnUse">
<stop stop-color="#FF4FFF"/>
<stop offset="1" stop-color="#691EC1"/>
</linearGradient>
<linearGradient id="paint6_linear_725_12" x1="1647.1" y1="63.5148" x2="1724.61" y2="63.5149" gradientUnits="userSpaceOnUse">
<stop stop-color="#FFC000"/>
<stop offset="0.36" stop-color="#FFA013"/>
<stop offset="1" stop-color="#FF6B34"/>
</linearGradient>
<radialGradient id="paint7_radial_725_12" cx="0" cy="0" r="1" gradientUnits="userSpaceOnUse" gradientTransform="translate(1678.02 57.0424) scale(49.929 49.929)">
<stop offset="0.53" stop-color="#FFE700" stop-opacity="0"/>
<stop offset="0.66" stop-color="#FFE700" stop-opacity="0.01"/>
<stop offset="0.72" stop-color="#FFE700" stop-opacity="0.04"/>
<stop offset="0.77" stop-color="#FFE700" stop-opacity="0.09"/>
<stop offset="0.82" stop-color="#FFE700" stop-opacity="0.16"/>
<stop offset="0.86" stop-color="#FFE700" stop-opacity="0.26"/>
<stop offset="0.89" stop-color="#FFE700" stop-opacity="0.38"/>
<stop offset="0.92" stop-color="#FFE700" stop-opacity="0.51"/>
<stop offset="0.95" stop-color="#FFE700" stop-opacity="0.68"/>
<stop offset="0.98" stop-color="#FFE700" stop-opacity="0.85"/>
<stop offset="1" stop-color="#FFE700"/>
</radialGradient>
<radialGradient id="paint8_radial_725_12" cx="0" cy="0" r="1" gradientUnits="userSpaceOnUse" gradientTransform="translate(1692.58 73.584) rotate(54.3955) scale(27.0742 33.4249)">
<stop stop-color="#FF4B4E" stop-opacity="0.77"/>
<stop offset="0.4" stop-color="#FF4B4E" stop-opacity="0.45"/>
<stop offset="0.81" stop-color="#FF4B4E" stop-opacity="0.13"/>
<stop offset="1" stop-color="#FF4B4E" stop-opacity="0"/>
</radialGradient>
<radialGradient id="paint9_radial_725_12" cx="0" cy="0" r="1" gradientUnits="userSpaceOnUse" gradientTransform="translate(1672.94 50.5731) scale(39.6088 39.6088)">
<stop stop-color="#FFE700"/>
<stop offset="1" stop-color="#FFE700" stop-opacity="0.03"/>
</radialGradient>
<linearGradient id="paint10_linear_725_12" x1="155.163" y1="560.636" x2="202.773" y2="608.252" gradientUnits="userSpaceOnUse">
<stop stop-color="#8700CF"/>
<stop offset="1" stop-color="#52059B"/>
</linearGradient>
<linearGradient id="paint11_linear_725_12" x1="134.976" y1="579.624" x2="213.55" y2="579.624" gradientUnits="userSpaceOnUse">
<stop stop-color="#D38BFF"/>
<stop offset="0.55" stop-color="#AF54F0"/>
<stop offset="1" stop-color="#9024E3"/>
</linearGradient>
<linearGradient id="paint12_linear_725_12" x1="134.975" y1="579.624" x2="213.55" y2="579.624" gradientUnits="userSpaceOnUse">
<stop stop-color="#D38BFF"/>
<stop offset="0.55" stop-color="#AF54F0"/>
<stop offset="1" stop-color="#9024E3"/>
</linearGradient>
</defs>
</svg>
