<svg width="288" height="55" viewBox="0 0 288 55" fill="none" xmlns="http://www.w3.org/2000/svg">
<path d="M166.522 40.3489H172.895V16.3113H166.522V40.3489ZM166.522 12.5628H172.895V6.84631H166.522V12.5628Z" fill="white"/>
<path d="M177.002 48.2208H183.375V37.6311H183.468C184.826 39.6929 187.029 41.0517 190.402 41.0517C196.588 41.0517 200.805 36.1318 200.805 28.3536C200.805 20.8564 196.728 15.6553 190.356 15.6553C187.076 15.6553 184.826 17.2016 183.28 19.3101H183.14V16.3113H177.002V48.2208ZM189.044 35.7569C185.248 35.7569 183.234 32.8987 183.234 28.5409C183.234 24.2301 184.826 20.8096 188.81 20.8096C192.746 20.8096 194.338 23.9958 194.338 28.5409C194.338 33.086 192.277 35.7569 189.044 35.7569Z" fill="white"/>
<path d="M213.516 41.0517C219.515 41.0517 223.638 38.1466 223.638 33.3203C223.638 27.6976 219.187 26.573 215.156 25.7296C211.736 25.0267 208.55 24.8392 208.55 22.7776C208.55 21.0439 210.19 20.1068 212.673 20.1068C215.391 20.1068 217.031 21.0439 217.312 23.621H223.075C222.607 18.7948 219.092 15.6553 212.767 15.6553C207.284 15.6553 202.974 18.1388 202.974 23.3399C202.974 28.5878 207.191 29.7592 211.502 30.6027C214.782 31.2587 217.827 31.4929 217.827 33.7889C217.827 35.4758 216.235 36.5535 213.423 36.5535C210.564 36.5535 208.596 35.3351 208.175 32.5707H202.271C202.646 37.678 206.535 41.0517 213.516 41.0517Z" fill="white"/>
<path d="M247.832 40.349V16.3114H241.46V30.1811C241.46 33.3673 239.632 35.6164 236.634 35.6164C233.916 35.6164 232.651 34.0702 232.651 31.2588V16.3114H226.325V32.3364C226.325 37.5844 229.324 41.005 234.666 41.005C238.04 41.005 239.914 39.7399 241.554 37.5376H241.695V40.349H247.832Z" fill="white"/>
<path d="M251.954 40.3489H258.327V26.3856C258.327 23.1992 260.061 21.1376 262.639 21.1376C264.981 21.1376 266.34 22.5432 266.34 25.261V40.3489H272.712V26.3856C272.712 23.1992 274.352 21.1376 277.023 21.1376C279.367 21.1376 280.725 22.5432 280.725 25.261V40.3489H287.098V24.1832C287.098 18.9353 284.239 15.6553 279.178 15.6553C276.133 15.6553 273.602 17.2484 271.962 19.8724H271.869C270.698 17.3421 268.261 15.6553 265.215 15.6553C261.888 15.6553 259.546 17.3421 258.234 19.5444H258.093V16.3113H251.954V40.3489Z" fill="white"/>
<path d="M0.431641 40.3489H6.80416V6.84631H0.431641V40.3489Z" fill="white"/>
<path d="M22.3858 41.0517C29.836 41.0517 34.9434 35.5226 34.9434 28.3536C34.9434 21.1844 29.836 15.6553 22.3858 15.6553C14.9355 15.6553 9.82812 21.1844 9.82812 28.3536C9.82812 35.5226 14.9355 41.0517 22.3858 41.0517ZM22.3858 36.1786C18.4498 36.1786 16.2944 33.0392 16.2944 28.3536C16.2944 23.6678 18.4498 20.4816 22.3858 20.4816C26.2749 20.4816 28.4771 23.6678 28.4771 28.3536C28.4771 33.0392 26.2749 36.1786 22.3858 36.1786Z" fill="white"/>
<path d="M48.4954 48.5488C52.0565 48.5488 55.1491 47.7054 57.1639 45.8311C58.9445 44.1911 60.0222 41.8951 60.0222 38.5215V16.3113H53.884V18.8416H53.7903C52.3376 16.8268 50.1354 15.6553 47.1365 15.6553C41.0452 15.6553 36.7344 20.2472 36.7344 27.4163C36.7344 34.6791 41.9823 38.8962 47.3241 38.8962C50.3697 38.8962 52.1971 37.678 53.6028 36.0849H53.7434V38.7089C53.7434 41.9888 52.0096 43.7226 48.4017 43.7226C45.4497 43.7226 44.0908 42.5511 43.5755 41.0517H37.2497C37.9057 45.7375 41.9355 48.5488 48.4954 48.5488ZM48.4017 33.7889C45.1217 33.7889 42.9663 31.3992 42.9663 27.3227C42.9663 23.293 45.1217 20.7627 48.3548 20.7627C52.1971 20.7627 54.0714 23.7616 54.0714 27.2758C54.0714 30.8369 52.4314 33.7889 48.4017 33.7889Z" fill="white"/>
<path d="M75.5118 41.0517C82.962 41.0517 88.0694 35.5226 88.0694 28.3536C88.0694 21.1844 82.962 15.6553 75.5118 15.6553C68.0616 15.6553 62.9541 21.1844 62.9541 28.3536C62.9541 35.5226 68.0616 41.0517 75.5118 41.0517ZM75.5118 36.1786C71.5758 36.1786 69.4204 33.0392 69.4204 28.3536C69.4204 23.6678 71.5758 20.4816 75.5118 20.4816C79.4009 20.4816 81.6032 23.6678 81.6032 28.3536C81.6032 33.0392 79.4009 36.1786 75.5118 36.1786Z" fill="white"/>
<path fill-rule="evenodd" clip-rule="evenodd" d="M126.716 0C141.811 0 154.05 12.2375 154.05 27.3331C154.05 42.4288 141.811 54.6663 126.716 54.6663C111.62 54.6663 99.3828 42.4288 99.3828 27.3331C99.3828 12.2375 111.62 0 126.716 0ZM125.728 2.04533C122.61 2.48416 119.64 4.98978 117.336 9.18038C116.667 10.3959 116.064 11.7388 115.538 13.1888C118.672 12.4013 122.115 11.937 125.728 11.8651V2.04533ZM113.228 13.8453C113.882 11.7937 114.681 9.90608 115.604 8.22817C116.747 6.15076 118.103 4.35684 119.631 2.979C111.323 5.39178 104.775 11.9402 102.362 20.248C103.74 18.7202 105.533 17.3642 107.611 16.2217C109.289 15.2988 111.176 14.499 113.228 13.8453ZM112.572 16.1554C111.784 19.2894 111.32 22.7322 111.248 26.3452H101.428C101.867 23.2269 104.372 20.2577 108.563 17.953C109.779 17.2844 111.122 16.6811 112.572 16.1554ZM113.224 26.3452C113.306 22.4022 113.873 18.7005 114.813 15.4298C118.083 14.4907 121.785 13.923 125.728 13.8414V18.1093C124.257 21.875 121.257 24.8748 117.491 26.3452H113.224ZM111.248 28.3211H101.428C101.867 31.4394 104.372 34.4085 108.563 36.7133C109.779 37.3819 111.122 37.9851 112.572 38.5109C111.784 35.3769 111.32 31.9341 111.248 28.3211ZM114.813 39.2365C113.873 35.9658 113.306 32.264 113.224 28.3211H117.491C121.257 29.7915 124.257 32.7913 125.728 36.557V40.8249C121.785 40.7433 118.083 40.1756 114.813 39.2365ZM113.228 40.821C111.176 40.1673 109.289 39.3675 107.611 38.4446C105.533 37.3021 103.74 35.9461 102.362 34.4183C104.775 42.7261 111.323 49.2746 119.631 51.6873C118.103 50.3094 116.747 48.5155 115.604 46.4381C114.681 44.7602 113.882 42.8726 113.228 40.821ZM125.728 52.621C122.61 52.1821 119.64 49.6765 117.336 45.4859C116.667 44.2704 116.064 42.9274 115.538 41.4775C118.672 42.265 122.115 42.7294 125.728 42.8011V52.621ZM133.801 51.6873C135.329 50.3094 136.685 48.5155 137.827 46.4381C138.75 44.7602 139.551 42.8726 140.204 40.821C142.255 40.1673 144.143 39.3675 145.821 38.4446C147.898 37.3021 149.693 35.9461 151.07 34.4183C148.657 42.7261 142.109 49.2746 133.801 51.6873ZM137.894 41.4775C137.368 42.9274 136.764 44.2704 136.096 45.4859C133.791 49.6765 130.822 52.1821 127.704 52.621V42.8011C131.317 42.7294 134.76 42.265 137.894 41.4775ZM140.86 38.5109C142.31 37.9851 143.653 37.3819 144.868 36.7133C149.06 34.4086 151.565 31.4394 152.004 28.3211H142.184C142.112 31.9341 141.647 35.3769 140.86 38.5109ZM140.208 28.3211C140.126 32.264 139.559 35.9658 138.619 39.2365C135.348 40.1756 131.647 40.7433 127.704 40.8249V36.5601C129.174 32.7931 132.175 29.7919 135.942 28.3211H140.208ZM142.184 26.3452H152.004C151.565 23.2269 149.06 20.2577 144.868 17.953C143.653 17.2844 142.31 16.6811 140.86 16.1554C141.647 19.2894 142.112 22.7322 142.184 26.3452ZM138.619 15.4298C139.559 18.7005 140.126 22.4022 140.208 26.3452H135.942C132.175 24.8744 129.174 21.8732 127.704 18.1062V13.8414C131.647 13.923 135.348 14.4907 138.619 15.4298ZM140.204 13.8453C142.255 14.499 144.143 15.2988 145.821 16.2217C147.898 17.3642 149.693 18.7202 151.07 20.248C148.657 11.9402 142.109 5.39178 133.801 2.979C135.329 4.35684 136.685 6.15076 137.827 8.22817C138.75 9.90608 139.551 11.7937 140.204 13.8453ZM127.704 2.04533C130.822 2.48416 133.791 4.98978 136.096 9.18038C136.764 10.3959 137.368 11.7388 137.894 13.1888C134.76 12.4013 131.317 11.937 127.704 11.8651V2.04533Z" fill="white"/>
</svg>
