<svg width="220" height="58" viewBox="0 0 220 58" fill="none" xmlns="http://www.w3.org/2000/svg">
<path fill-rule="evenodd" clip-rule="evenodd" d="M34.0108 1.58788C31.8921 -0.529904 28.4578 -0.529209 26.3401 1.58946L8.66551 19.2713L8.65045 19.2669L8.5946 19.2729C8.6176 19.2839 8.64018 19.2948 8.66231 19.3059C5.56181 19.6307 4.24632 20.5624 4.23143 21.7589C4.23668 22.204 4.41929 22.6847 4.75472 23.1837L4.73859 23.1999C7.55726 27.4511 21.5208 33.0591 31.3997 29.2595C23.9958 32.9614 6.55954 33.6951 1.43822 26.5075C0.326034 27.7106 -0.1393 29.2918 0.0359381 30.8113C1.38885 38.2682 16.5145 40.3025 31.6402 29.4985L34.9133 32.7716C30.8404 36.956 24.8242 61.2617 33.7636 57.5507C33.9757 57.4067 34.1557 57.2779 34.4005 57.0927L34.7989 56.7165C34.7759 56.7222 34.7531 56.7276 34.7304 56.733L58.6722 34.1305C60.8952 32.0318 60.9455 28.5116 58.7832 26.3502L34.0108 1.58788ZM31.4036 8.9538L32.2219 5.68068L33.0401 8.9538L35.495 9.7721L33.0401 10.5904L32.2219 13.8635L31.4036 10.5904L28.9487 9.7721L31.4036 8.9538ZM21.2753 19.6388L21.8208 17.4567L22.3663 19.6388L24.0029 20.1843L22.3663 20.7298L21.8208 22.9119L21.2753 20.7298L19.6388 20.1843L21.2753 19.6388ZM40.275 38.0446L39.7295 40.2266L38.093 40.7723L39.7295 41.3178L40.275 43.4998L40.8205 41.3178L42.4571 40.7723L40.8205 40.2266L40.275 38.0446Z" fill="#FBECC8"/>
<path d="M74.1412 13.7166H69.0605V36.6417H83.1255V32.1496H74.1412V13.7166Z" fill="#FBECC8"/>
<path d="M83.6104 28.8655C83.6104 33.7604 86.8943 37.0133 91.851 37.0133C96.7769 37.0133 100.061 33.7604 100.061 28.8655C100.061 23.9707 96.7769 20.6869 91.851 20.6869C86.8943 20.6869 83.6104 23.9707 83.6104 28.8655ZM88.4123 28.8346C88.4123 26.5111 89.7754 24.9621 91.851 24.9621C93.8957 24.9621 95.2589 26.5111 95.2589 28.8346C95.2589 31.1891 93.8957 32.7381 91.851 32.7381C89.7754 32.7381 88.4123 31.1891 88.4123 28.8346Z" fill="#FBECC8"/>
<path d="M100.828 28.6179C100.828 33.2957 103.865 36.4557 108.171 36.4557C110.246 36.4557 112.043 35.7122 112.942 34.504V36.6416C112.942 38.7792 111.609 40.2044 109.255 40.2044C107.148 40.2044 105.692 39.213 105.599 37.4471H100.767C101.2 41.6914 104.484 44.5416 108.976 44.5416C114.274 44.5416 117.62 41.1028 117.62 35.6502V21.1516H113.313L113.066 22.7315C112.198 21.4614 110.37 20.625 108.264 20.625C103.927 20.625 100.828 23.8779 100.828 28.6179ZM105.661 28.4939C105.661 26.2634 107.148 24.7762 109.038 24.7762C111.238 24.7762 112.849 26.2323 112.849 28.4939C112.849 30.7555 111.269 32.3044 109.069 32.3044C107.179 32.3044 105.661 30.7555 105.661 28.4939Z" fill="#FBECC8"/>
<path d="M119.01 28.8655C119.01 33.7604 122.294 37.0133 127.25 37.0133C132.176 37.0133 135.46 33.7604 135.46 28.8655C135.46 23.9707 132.176 20.6869 127.25 20.6869C122.294 20.6869 119.01 23.9707 119.01 28.8655ZM123.812 28.8346C123.812 26.5111 125.175 24.9621 127.25 24.9621C129.295 24.9621 130.658 26.5111 130.658 28.8346C130.658 31.1891 129.295 32.7381 127.25 32.7381C125.175 32.7381 123.812 31.1891 123.812 28.8346Z" fill="#FBECC8"/>
<path d="M139.574 18.7351C141.061 18.7351 142.269 17.527 142.269 16.0089C142.269 14.4908 141.061 13.3136 139.574 13.3136C138.056 13.3136 136.848 14.4908 136.848 16.0089C136.848 17.527 138.056 18.7351 139.574 18.7351ZM137.157 36.6416H141.96V21.1516H137.157V36.6416Z" fill="#FBECC8"/>
<path d="M144.754 44.0771H149.463V35.093C150.362 36.2702 152.406 37.0757 154.545 37.0757C159.16 37.0757 161.949 33.544 161.824 28.6491C161.7 23.6613 158.82 20.6562 154.514 20.6562C152.314 20.6562 150.239 21.6166 149.371 23.0418L149.122 21.152H144.754V44.0771ZM149.556 28.8969C149.556 26.5735 151.105 25.0245 153.336 25.0245C155.597 25.0245 157.023 26.6044 157.023 28.8969C157.023 31.1895 155.597 32.7694 153.336 32.7694C151.105 32.7694 149.556 31.2204 149.556 28.8969Z" fill="#FBECC8"/>
<path d="M162.333 31.7471C162.456 34.8761 164.936 37.0446 168.839 37.0446C172.588 37.0446 175.19 35.0619 175.19 31.871C175.19 29.5785 173.826 28.0605 171.286 27.4409L168.528 26.7593C167.537 26.5115 166.919 26.2637 166.919 25.4582C166.919 24.6527 167.568 24.126 168.528 24.126C169.613 24.126 170.325 24.8386 170.294 25.892H174.602C174.477 22.67 172.03 20.6562 168.622 20.6562C165.182 20.6562 162.612 22.7009 162.612 25.7989C162.612 27.8747 163.758 29.5785 166.825 30.384L169.551 31.0965C170.357 31.3133 170.697 31.6851 170.697 32.2119C170.697 32.9863 169.985 33.482 168.777 33.482C167.382 33.482 166.639 32.8314 166.639 31.7471H162.333Z" fill="#FBECC8"/>
<path d="M182.491 37.0443C184.382 37.0443 186.271 36.1769 187.232 34.9067L187.542 36.6416H192.034V21.1516H187.263V29.2064C187.263 31.5298 186.58 32.8001 184.382 32.8001C182.677 32.8001 181.562 32.0256 181.562 29.1445V21.1516H176.791V30.8792C176.791 34.566 178.836 37.0443 182.491 37.0443Z" fill="#FBECC8"/>
<path d="M199.6 36.6416V28.1841C199.6 25.5817 200.995 24.8382 202.358 24.8382C203.875 24.8382 204.867 25.7677 204.867 27.6884V36.6416H209.576V28.1841C209.576 25.5508 210.939 24.8073 212.302 24.8073C213.819 24.8073 214.842 25.7366 214.842 27.6884V36.6416H219.49V26.5112C219.49 22.9795 217.631 20.625 213.634 20.625C211.404 20.625 209.576 21.7093 208.77 23.3821C207.841 21.7093 206.23 20.625 203.658 20.625C201.955 20.625 200.375 21.3994 199.446 22.6386L199.26 21.1516H194.798V36.6416H199.6Z" fill="#FBECC8"/>
<path fill-rule="evenodd" clip-rule="evenodd" d="M60.5159 3.75378C55.3975 3.75378 50.5435 6.02728 47.2667 9.95938L35.6092 23.9485L42.3407 13.8511L31.1669 18.6399C29.7479 19.2481 29.3919 21.0969 30.4834 22.1886L34.0792 25.7843L32.2433 27.9874L36.2824 32.0263L38.4853 30.1904L42.0812 33.7862C43.1727 34.8777 45.0217 34.5217 45.6297 33.1028L50.4185 21.929L40.3213 28.6605L54.3103 17.0029C58.2424 13.7263 60.5159 8.87223 60.5159 3.75378ZM49.4089 14.8611C50.5242 15.9763 52.3324 15.9763 53.4478 14.8611C54.5631 13.7457 54.5631 11.9374 53.4478 10.8222C52.3324 9.7068 50.5242 9.7068 49.4089 10.8222C48.2935 11.9374 48.2935 13.7457 49.4089 14.8611Z" fill="#A3A2FF"/>
<path opacity="0.6" d="M1.30859 26.3191C3.98284 35.4814 20.2417 35.0037 31.3968 29.2606C23.9272 32.9932 6.25726 33.706 1.30859 26.3191Z" fill="#424242"/>
<path opacity="0.6" d="M33.7634 57.5504C26.2308 60.6773 29.3172 43.9118 32.9118 36.0541C30.2916 43.0383 28.0548 58.4347 34.7987 56.7162L34.4003 57.0924C34.1554 57.2776 33.9755 57.4064 33.7634 57.5504Z" fill="#424242"/>
</svg>
