<svg width="1538" height="371" viewBox="0 0 1538 371" fill="none" xmlns="http://www.w3.org/2000/svg">
<path d="M49.8521 256.452C49.3529 245.687 60.695 238.418 70.2679 243.368L116.234 267.139C125.807 272.089 126.431 285.546 117.358 291.361L73.7884 319.284C64.7148 325.099 52.7486 318.911 52.2493 308.146L49.8521 256.452Z" fill="url(#paint0_linear_725_30)" fill-opacity="0.32"/>
<path d="M630.843 44.9266C650.12 43.2918 663.937 63.1374 655.715 80.6486C647.492 98.1599 623.397 100.203 612.343 84.3269C601.289 68.4504 611.567 46.5613 630.843 44.9266Z" fill="url(#paint1_linear_725_30)" fill-opacity="0.38"/>
<path d="M1381.52 262.757C1375.33 231.807 1404.97 205.769 1434.87 215.888C1464.76 226.008 1472.5 264.695 1448.78 285.526C1425.07 306.357 1387.7 293.708 1381.52 262.757Z" fill="url(#paint2_linear_725_30)" fill-opacity="0.38"/>
<defs>
<linearGradient id="paint0_linear_725_30" x1="-18.7042" y1="112.067" x2="106.579" y2="320.99" gradientUnits="userSpaceOnUse">
<stop stop-color="#3083FF"/>
<stop offset="1" stop-color="white" stop-opacity="0"/>
</linearGradient>
<linearGradient id="paint1_linear_725_30" x1="776.249" y1="-21.2606" x2="599.113" y2="94.398" gradientUnits="userSpaceOnUse">
<stop stop-color="#3322D5"/>
<stop offset="1" stop-color="#D9D9D9" stop-opacity="0"/>
</linearGradient>
<linearGradient id="paint2_linear_725_30" x1="1247.56" y1="39.1682" x2="1467.54" y2="305.127" gradientUnits="userSpaceOnUse">
<stop stop-color="#3322D5"/>
<stop offset="1" stop-color="#D9D9D9" stop-opacity="0"/>
</linearGradient>
</defs>
</svg>
