<svg width="240" height="56" viewBox="0 0 240 56" fill="none" xmlns="http://www.w3.org/2000/svg">
<path d="M233.863 10.841L239.568 16.5845C239.767 16.7432 239.915 16.9574 239.991 17.2C240.108 18.6136 239.038 18.691 237.944 18.77C237.471 18.8041 236.994 18.8387 236.608 18.9819C234.689 19.5011 232.978 20.5977 231.705 22.1229C230.432 23.6481 229.66 25.5281 229.491 27.5076C229.368 27.7362 229.183 27.9244 228.954 28.0494C228.727 28.1746 228.469 28.2312 228.21 28.2128C227.909 28.1861 227.627 28.0545 227.414 27.8409L225.542 25.9557C225.555 26.0847 225.555 26.2125 225.555 26.3153V27.5588C225.555 27.6374 225.558 27.7131 225.549 27.7887C225.536 27.8734 225.508 27.9579 225.441 28.0459V28.1614C225.441 28.2203 225.447 28.2751 225.454 28.3307C225.468 28.4445 225.483 28.5618 225.441 28.7255C225.4 28.8782 225.396 29.0563 225.39 29.2152C225.389 29.3096 225.386 29.3974 225.376 29.469C225.363 29.5683 225.363 29.6744 225.355 29.7803C225.346 29.8795 225.33 29.9786 225.286 30.0715C225.226 30.2016 225.206 30.3259 225.2 30.4522C225.196 30.5126 225.196 30.5734 225.196 30.6357L225.12 31.0331L222.21 44.9048L221.979 45.9432L221.889 47.4561L220.607 54.0073L220.402 55.033H116.646L116.146 54.5329L116.056 54.9689H104.954L98.7745 48.751L99.3642 45.9432H95.877L93.7105 43.751C91.0216 45.709 87.7669 46.7353 84.4413 46.6741C80.8664 46.8147 77.3812 45.5331 74.7491 43.11L71.3773 39.7126L70.6465 43.1227C70.5568 43.6099 70.4414 44.0716 70.3132 44.5203L70.1978 44.9434L70.0055 45.5586C69.9897 45.6121 69.9682 45.6637 69.9414 45.7125C69.7505 46.2778 69.5237 46.8302 69.2619 47.3663C69.2688 47.3871 69.2688 47.4096 69.2619 47.4304C69.2283 47.5015 69.1898 47.57 69.1465 47.6356C68.9529 48.0186 68.7391 48.3909 68.5055 48.751C68.4622 48.8165 68.4236 48.8851 68.3901 48.9562L68.2491 49.1099C67.9357 49.5594 67.5931 49.9876 67.2234 50.392C67.122 50.4934 67.0206 50.5886 66.9176 50.6821C66.8123 50.7778 66.7055 50.8717 66.5952 50.9688L66.3132 51.2381C66.1354 51.3858 65.9535 51.5283 65.7678 51.6657C65.6146 51.779 65.4588 51.8886 65.3004 51.9945C62.6582 53.56 59.6105 54.3051 56.5441 54.1355C52.3133 54.1355 48.9287 52.9047 46.7877 50.751L40.7621 44.6869C38.3553 46.0489 35.63 46.7479 32.8647 46.7125C29.3006 46.8228 25.8365 45.5238 23.2238 43.0972L19.8521 39.6998L18.7623 44.9434L18.5443 45.9818H7.19828L0.993164 39.7253L1.31367 38.2126L8.13415 5.45638L8.33923 4.43076H19.7238L20.0187 4.71285V4.43076H96.7233L97.0054 4.71285V4.43076H108.108L114.313 10.6871L114.005 12.1871L113.672 13.8281H116.864L117.364 14.3282C118.769 13.505 120.364 13.063 121.992 13.0461C123.19 13.0225 124.378 13.2499 125.482 13.7136C126.587 14.1773 127.581 14.8669 128.403 15.7383L128.236 15.546L131.249 18.5845C133.082 15.1359 137.197 13.0461 142.787 13.0461C147.12 13.0461 150.313 14.1486 152.248 16.1486L154.428 18.341L155.159 14.8153L155.376 13.7896H166.491L169.671 16.982L170.12 14.8281L170.338 13.8025H192.21L192.799 14.3923C194.281 13.5181 195.977 13.0741 197.698 13.1102C198.732 13.0698 199.763 13.2593 200.716 13.6649C201.669 14.0706 202.52 14.6824 203.209 15.4564C203.174 15.4161 203.14 15.3757 203.105 15.3361C203.044 15.2626 202.982 15.1908 202.917 15.1244L204.031 16.2384C205.001 15.2335 206.168 14.4377 207.457 13.8998C208.747 13.3619 210.133 13.0931 211.529 13.1102C212.272 13.0646 213.012 13.1277 213.731 13.2957L212.518 12.0718C212.352 11.8948 212.24 11.6747 212.195 11.4369C212.15 11.1991 212.173 10.9533 212.261 10.728C212.349 10.5026 212.5 10.307 212.695 10.1636C212.891 10.0203 213.122 9.93506 213.364 9.91793H214.338C214.6 9.89289 214.861 9.85439 215.12 9.80251C216.482 9.51612 217.764 8.9305 218.873 8.0879C219.982 7.2454 220.89 6.16704 221.531 4.93077C221.587 4.83515 221.637 4.73679 221.684 4.63592V4.57184C222.125 3.62228 222.393 2.60229 222.479 1.55899C222.501 1.2348 222.647 0.931274 222.885 0.709984C223.123 0.488616 223.436 0.36592 223.761 0.366703H223.864C224.058 0.38517 224.246 0.447926 224.413 0.55012C224.58 0.652392 224.72 0.791363 224.826 0.956471C225.748 1.85391 230.876 7.07175 230.876 7.07175C231.304 7.53124 231.272 8.12774 231.239 8.73127C231.219 9.10445 231.198 9.48036 231.286 9.82818C231.52 9.87004 231.756 9.90173 231.991 9.92317C232.218 9.94359 232.445 9.9547 232.672 9.95636C232.937 9.96191 233.195 10.05 233.408 10.2085C233.621 10.367 233.781 10.5881 233.863 10.841Z" fill="#030092"/>
<path d="M59.6725 15.0588H67.775L63.2366 36.5842C62.4034 40.6611 60.8136 42.9945 58.4033 44.6483C55.9655 46.0629 53.1662 46.7315 50.3522 46.5713C44.9933 46.5713 39.8522 44.3278 39.3394 38.8791H47.4932C47.7495 40.1611 48.9291 40.8919 50.7239 40.8919C53.147 40.8919 54.2624 39.4304 54.7624 37.1355L55.2495 34.7637H55.07C54.3546 35.5502 53.4868 36.1829 52.5193 36.6237C51.5517 37.0644 50.5049 37.304 49.4419 37.3278C44.724 37.3278 40.9804 33.5714 41.0573 28.0714C41.1599 21.6612 45.3393 14.3793 52.3522 14.3793C53.6811 14.2898 55.0079 14.5826 56.1757 15.2233C57.3435 15.8639 58.3033 16.8256 58.9418 17.9946H59.0828L59.6725 15.0588ZM52.7111 31.315C55.8265 31.315 57.5572 27.7254 57.6085 24.6356C57.6085 22.5716 56.8008 20.4561 54.4162 20.4561C51.1598 20.4561 49.506 24.0843 49.4547 27.1996C49.4547 29.3022 50.2624 31.315 52.647 31.315M143.673 32.0074C143.673 33.3791 142.492 33.9304 140.941 33.9304C138.377 33.9304 137.518 32.6483 137.505 30.8535H129.441C129.3 37.5458 135.275 39.1996 140.583 39.1996C147.364 39.1996 151.762 36.2637 151.852 30.4048C151.852 25.7253 147.864 24.3023 143.942 23.392C140.928 22.6998 139.608 22.1997 139.62 21.0587C139.634 19.9177 140.98 19.4561 142.301 19.4561C143.954 19.4561 145.082 20.0459 145.198 21.5587H153.032C152.941 15.969 147.902 14.328 142.775 14.328C136.544 14.328 131.685 17.1613 131.608 22.5202C131.608 26.7381 134.454 28.2894 138.749 29.392C141.505 30.1228 143.697 30.3535 143.673 32.0074ZM203.581 18.5331H203.441C203.092 17.2706 202.321 16.1654 201.258 15.4005C200.195 14.6357 198.902 14.2572 197.594 14.328C194.108 14.328 191.98 16.0588 189.967 18.6741H189.826L190.569 15.0588H182.415L177.53 38.4176H186.057L188.621 25.8151C189.21 23.0715 190.608 21.1485 192.723 21.1485C194.839 21.1485 195.12 22.8407 194.684 24.9049L191.864 38.4176H200.389L202.954 25.8151C203.543 22.8921 204.941 21.1485 207.055 21.1485C209.171 21.1485 209.454 22.751 209.018 24.9049L206.197 38.4176H214.722L217.774 24.533C219.056 18.6741 217.095 14.2766 211.467 14.2766C209.901 14.2702 208.359 14.6564 206.982 15.4C205.604 16.1436 204.436 17.2208 203.581 18.5331ZM2.55762 38.4176H11.3652L18.1729 5.66138H9.37808L2.55762 38.4176ZM29.0702 14.3664C35.0189 14.3664 40.6984 17.6228 40.6086 24.9945C40.5317 33.0586 35.0446 39.0971 26.66 39.0971C20.8908 39.0971 15.1217 35.892 15.2242 28.5586C15.3652 20.687 20.7754 14.3664 29.0702 14.3664ZM26.9037 33.3791C30.66 33.3791 32.0318 27.9304 32.0318 24.7253C32.0318 22.4305 31.3267 20.1869 28.8522 20.1869C25.1344 20.1869 23.8652 25.9561 23.8652 28.9305C23.8652 31.315 24.5318 33.3791 26.9549 33.3791M21.1087 5.66138L19.8267 12.2126H93.7877L95.0698 5.66138H21.1087ZM80.5955 14.3664C86.5442 14.3664 92.2236 17.6228 92.1339 24.9945C92.057 33.0586 86.557 39.0971 78.1724 39.0971C72.4032 39.0971 66.634 35.892 66.7495 28.5586C66.9289 20.687 72.3391 14.3664 80.5955 14.3664ZM78.4674 33.3791C82.2238 33.3791 83.5955 27.9304 83.5955 24.7253C83.5955 22.4305 82.8776 20.1869 80.4032 20.1869C76.6981 20.1869 75.416 25.9561 75.416 28.9305C75.416 31.315 76.0827 33.3791 78.5186 33.3791M98.0954 5.66138L96.8134 12.2126H105.326L106.608 5.66138H98.0954ZM91.275 38.4176H99.8005L104.685 15.0588H96.1082L91.275 38.4176ZM118.48 39.1996C117.123 39.2959 115.766 39.0123 114.561 38.3805C113.356 37.7487 112.352 36.7937 111.659 35.6227H111.518L108.954 47.4431H100.326L107.249 15.0588H115.352L114.711 18.1741C115.557 17.0234 116.653 16.0794 117.916 15.4132C119.18 14.7471 120.578 14.376 122.006 14.328C127.134 14.328 130.146 18.7254 130.057 24.4433C129.941 31.6355 126.211 39.1996 118.429 39.1996H118.48ZM118.146 20.9433C114.852 20.9433 112.826 25.1613 112.775 28.4049C112.775 30.6612 113.57 33.174 116.275 33.174C119.8 33.174 121.249 28.5074 121.287 25.3919C121.287 23.2766 120.672 20.9433 118.146 20.9433ZM167.442 34.7381H167.582L166.839 38.4433H174.94L179.826 15.0843H171.313L168.595 28.1355C168.044 30.8407 166.377 32.2638 164.275 32.2638C162.172 32.2638 161.71 30.2894 162.133 28.2253L164.89 15.0843H156.377L153.364 29.5074C152.082 35.7893 155.005 39.174 159.903 39.174C161.441 39.159 162.948 38.7387 164.271 37.9554C165.594 37.172 166.689 36.0534 167.442 34.7124V34.7381ZM213.171 47.5586L214.453 41.0072H113.352L112.07 47.5586H213.171Z" fill="white"/>
<path d="M222.337 21.4691C222.253 21.4626 222.171 21.4395 222.096 21.4011C222.019 21.3629 221.953 21.31 221.898 21.2456C221.843 21.1812 221.802 21.1068 221.776 21.0263C221.75 20.9458 221.741 20.861 221.748 20.7767C221.854 19.635 221.719 18.4835 221.35 17.3978C220.981 16.3121 220.386 15.3165 219.605 14.4766C218.824 13.6366 217.874 12.971 216.819 12.5234C215.763 12.0758 214.624 11.8564 213.478 11.8794C213.308 11.8794 213.146 11.8119 213.026 11.6916C212.905 11.5714 212.837 11.4084 212.837 11.2384C212.837 11.0684 212.905 10.9053 213.026 10.7851C213.146 10.6649 213.308 10.5974 213.478 10.5974C213.785 10.6172 214.094 10.6172 214.402 10.5974C216.679 10.3548 218.8 9.32595 220.4 7.68797C222.002 6.04999 222.98 3.9053 223.17 1.62306C223.184 1.46209 223.256 1.31194 223.375 1.2026C223.494 1.09327 223.65 1.03281 223.811 1.03333C223.896 1.0398 223.978 1.06288 224.053 1.10123C224.128 1.13958 224.195 1.19245 224.25 1.25679C224.306 1.32113 224.347 1.39568 224.373 1.47614C224.399 1.55661 224.408 1.64139 224.402 1.72562C224.295 2.86632 224.43 4.01671 224.798 5.10153C225.167 6.18634 225.76 7.18117 226.539 8.02099C227.319 8.86078 228.266 9.52664 229.32 9.97503C230.375 10.4234 231.512 10.6442 232.658 10.623C232.827 10.623 232.991 10.6905 233.111 10.8108C233.232 10.931 233.299 11.094 233.299 11.264C233.299 11.434 233.232 11.5971 233.111 11.7173C232.991 11.8375 232.827 11.905 232.658 11.905C230.222 11.9453 227.887 12.8835 226.1 14.5398C224.314 16.1961 223.202 18.4537 222.979 20.8793C222.965 21.0403 222.893 21.1905 222.774 21.2999C222.655 21.4092 222.499 21.4696 222.337 21.4691Z" fill="white"/>
</svg>
