<svg width="255" height="50" viewBox="0 0 255 50" fill="none" xmlns="http://www.w3.org/2000/svg">
<path d="M76.7158 38.9304V13.083H81.5898V34.4995H93.4058V38.9304H76.7158Z" fill="white"/>
<path d="M103.93 39.4472C102.108 39.4472 100.471 39.0779 99.0186 38.3394C97.5661 37.601 96.4214 36.5301 95.5845 35.127C94.7476 33.7238 94.3291 32.0376 94.3291 30.0682V29.4774C94.3291 27.5081 94.7476 25.8218 95.5845 24.4187C96.4214 23.0156 97.5661 21.9447 99.0186 21.2062C100.471 20.4678 102.108 20.0985 103.93 20.0985C105.751 20.0985 107.388 20.4678 108.841 21.2062C110.293 21.9447 111.438 23.0156 112.275 24.4187C113.112 25.8218 113.53 27.5081 113.53 29.4774V30.0682C113.53 32.0376 113.112 33.7238 112.275 35.127C111.438 36.5301 110.293 37.601 108.841 38.3394C107.388 39.0779 105.751 39.4472 103.93 39.4472ZM103.93 35.3115C105.357 35.3115 106.539 34.8561 107.474 33.9454C108.41 33.0099 108.878 31.6805 108.878 29.9575V29.5882C108.878 27.865 108.41 26.548 107.474 25.6371C106.564 24.7018 105.382 24.234 103.93 24.234C102.502 24.234 101.32 24.7018 100.385 25.6371C99.4493 26.548 98.9816 27.865 98.9816 29.5882V29.9575C98.9816 31.6805 99.4493 33.0099 100.385 33.9454C101.32 34.8561 102.502 35.3115 103.93 35.3115Z" fill="white"/>
<path d="M115.276 29.8467V29.2559C115.276 27.3358 115.658 25.6987 116.421 24.3448C117.184 22.9664 118.193 21.9201 119.449 21.2062C120.729 20.4678 122.12 20.0985 123.621 20.0985C125.295 20.0985 126.563 20.3938 127.425 20.9846C128.286 21.5754 128.914 22.1908 129.308 22.8308H129.973V20.6154H134.551V42.1795C134.551 43.4351 134.182 44.432 133.443 45.1705C132.705 45.9337 131.72 46.3151 130.489 46.3151H118.23V42.2535H128.865C129.554 42.2535 129.899 41.8842 129.899 41.1456V36.3824H129.234C128.988 36.7763 128.643 37.1823 128.2 37.601C127.757 37.9947 127.166 38.3271 126.428 38.5979C125.689 38.8686 124.754 39.0041 123.621 39.0041C122.12 39.0041 120.729 38.6471 119.449 37.9333C118.193 37.1947 117.184 36.1485 116.421 34.7945C115.658 33.4161 115.276 31.7667 115.276 29.8467ZM124.951 34.9423C126.379 34.9423 127.572 34.4868 128.532 33.5761C129.493 32.6652 129.973 31.3852 129.973 29.7359V29.3667C129.973 27.6926 129.493 26.4127 128.532 25.5264C127.597 24.6156 126.403 24.1602 124.951 24.1602C123.523 24.1602 122.329 24.6156 121.369 25.5264C120.409 26.4127 119.929 27.6926 119.929 29.3667V29.7359C119.929 31.3852 120.409 32.6652 121.369 33.5761C122.329 34.4868 123.523 34.9423 124.951 34.9423Z" fill="white"/>
<path d="M146.762 39.4472C144.94 39.4472 143.303 39.0779 141.851 38.3394C140.398 37.601 139.254 36.5301 138.417 35.127C137.58 33.7238 137.161 32.0376 137.161 30.0682V29.4774C137.161 27.5081 137.58 25.8218 138.417 24.4187C139.254 23.0156 140.398 21.9447 141.851 21.2062C143.303 20.4678 144.94 20.0985 146.762 20.0985C148.583 20.0985 150.22 20.4678 151.673 21.2062C153.125 21.9447 154.27 23.0156 155.107 24.4187C155.944 25.8218 156.362 27.5081 156.362 29.4774V30.0682C156.362 32.0376 155.944 33.7238 155.107 35.127C154.27 36.5301 153.125 37.601 151.673 38.3394C150.22 39.0779 148.583 39.4472 146.762 39.4472ZM146.762 35.3115C148.189 35.3115 149.371 34.8561 150.306 33.9454C151.242 33.0099 151.71 31.6805 151.71 29.9575V29.5882C151.71 27.865 151.242 26.548 150.306 25.6371C149.396 24.7018 148.214 24.234 146.762 24.234C145.334 24.234 144.152 24.7018 143.217 25.6371C142.281 26.548 141.814 27.865 141.814 29.5882V29.9575C141.814 31.6805 142.281 33.0099 143.217 33.9454C144.152 34.8561 145.334 35.3115 146.762 35.3115Z" fill="white"/>
<path d="M158.996 38.9306V20.6158H163.649V38.9306H158.996ZM161.322 18.4742C160.484 18.4742 159.772 18.2033 159.18 17.6617C158.614 17.1203 158.331 16.4063 158.331 15.5202C158.331 14.634 158.614 13.9201 159.18 13.3785C159.772 12.837 160.484 12.5662 161.322 12.5662C162.184 12.5662 162.898 12.837 163.463 13.3785C164.029 13.9201 164.314 14.634 164.314 15.5202C164.314 16.4063 164.029 17.1203 163.463 17.6617C162.898 18.2033 162.184 18.4742 161.322 18.4742Z" fill="white"/>
<path d="M167.143 46.3151V20.6154H171.721V22.8308H172.386C172.803 22.1171 173.455 21.4893 174.342 20.9477C175.228 20.3816 176.496 20.0985 178.146 20.0985C179.622 20.0985 180.988 20.4678 182.244 21.2062C183.5 21.9201 184.51 22.9786 185.271 24.3817C186.035 25.7849 186.417 27.4835 186.417 29.4774V30.0682C186.417 32.0622 186.035 33.7607 185.271 35.1638C184.51 36.5669 183.5 37.6378 182.244 38.3763C180.988 39.0901 179.622 39.4472 178.146 39.4472C177.039 39.4472 176.102 39.3118 175.339 39.0409C174.601 38.7948 173.998 38.4747 173.53 38.0808C173.087 37.6624 172.73 37.2439 172.459 36.8254H171.794V46.3151H167.143ZM176.742 35.3853C178.195 35.3853 179.389 34.93 180.323 34.0192C181.283 33.0837 181.764 31.7299 181.764 29.9575V29.5882C181.764 27.8158 181.283 26.4742 180.323 25.5633C179.363 24.6279 178.17 24.1602 176.742 24.1602C175.315 24.1602 174.12 24.6279 173.16 25.5633C172.2 26.4742 171.721 27.8158 171.721 29.5882V29.9575C171.721 31.7299 172.2 33.0837 173.16 34.0192C174.12 34.93 175.315 35.3853 176.742 35.3853Z" fill="white"/>
<path d="M196.634 39.4472C194.246 39.4472 192.289 38.9302 190.762 37.8963C189.237 36.8624 188.314 35.3853 187.993 33.4653L192.276 32.3575C192.449 33.2192 192.732 33.896 193.127 34.3884C193.544 34.8807 194.049 35.2378 194.641 35.4593C195.255 35.6562 195.92 35.7546 196.634 35.7546C197.718 35.7546 198.518 35.57 199.033 35.2008C199.551 34.8069 199.809 34.3269 199.809 33.7607C199.809 33.1944 199.563 32.7638 199.071 32.4683C198.578 32.1484 197.791 31.8899 196.708 31.6929L195.674 31.5082C194.393 31.2621 193.225 30.9298 192.167 30.5113C191.107 30.0682 190.258 29.4651 189.618 28.7019C188.979 27.9389 188.658 26.9543 188.658 25.7481C188.658 23.9263 189.323 22.5355 190.653 21.5754C191.981 20.5908 193.73 20.0985 195.896 20.0985C197.938 20.0985 199.638 20.5538 200.992 21.4647C202.345 22.3756 203.231 23.5694 203.65 25.0465L199.33 26.3757C199.133 25.4404 198.727 24.7756 198.111 24.3817C197.519 23.9879 196.781 23.7909 195.896 23.7909C195.009 23.7909 194.333 23.951 193.865 24.271C193.397 24.5664 193.163 24.9849 193.163 25.5264C193.163 26.1172 193.409 26.5604 193.901 26.8557C194.393 27.1264 195.058 27.3358 195.896 27.4835L196.929 27.6681C198.308 27.9142 199.551 28.2466 200.658 28.6651C201.791 29.059 202.677 29.6374 203.318 30.4005C203.981 31.1391 204.314 32.1484 204.314 33.4284C204.314 35.3485 203.613 36.8378 202.21 37.8963C200.831 38.9302 198.973 39.4472 196.634 39.4472Z" fill="white"/>
<path d="M213.709 39.2261C212.281 39.2261 211.025 38.906 209.942 38.266C208.883 37.6014 208.059 36.6906 207.468 35.5336C206.877 34.3765 206.582 33.0473 206.582 31.5457V20.6158H211.235V31.1764C211.235 32.5549 211.566 33.5888 212.231 34.2781C212.92 34.9673 213.893 35.312 215.148 35.312C216.576 35.312 217.684 34.8444 218.471 33.9089C219.26 32.9488 219.653 31.6194 219.653 29.921V20.6158H224.306V38.9306H219.726V36.5306H219.063C218.768 37.146 218.212 37.749 217.402 38.3398C216.589 38.9306 215.358 39.2261 213.709 39.2261Z" fill="white"/>
<path d="M227.821 38.9299V20.6151H232.4V22.6091H233.064C233.385 21.9937 233.915 21.4645 234.653 21.0214C235.391 20.5536 236.364 20.3198 237.57 20.3198C238.874 20.3198 239.921 20.5783 240.709 21.0952C241.496 21.5876 242.099 22.2398 242.518 23.0523H243.183C243.601 22.2646 244.192 21.6122 244.955 21.0952C245.718 20.5783 246.801 20.3198 248.203 20.3198C249.337 20.3198 250.359 20.566 251.269 21.0584C252.204 21.526 252.944 22.2522 253.485 23.2369C254.051 24.197 254.334 25.4154 254.334 26.8925V38.9299H249.681V27.2248C249.681 26.2155 249.422 25.4647 248.907 24.9723C248.389 24.4555 247.662 24.197 246.728 24.197C245.669 24.197 244.844 24.5415 244.254 25.2308C243.687 25.8954 243.405 26.8555 243.405 28.1109V38.9299H238.752V27.2248C238.752 26.2155 238.493 25.4647 237.976 24.9723C237.459 24.4555 236.733 24.197 235.797 24.197C234.739 24.197 233.913 24.5415 233.323 25.2308C232.757 25.8954 232.474 26.8555 232.474 28.1109V38.9299H227.821Z" fill="white"/>
<path d="M61.9707 25.084C61.9707 18.5551 59.377 12.2936 54.7604 7.677C50.1438 3.06039 43.8823 0.466798 37.3535 0.466797C30.8246 0.466796 24.5632 3.06039 19.9466 7.677C15.3299 12.2936 12.7363 18.5551 12.7363 25.084H20.4293C22.9785 25.084 24.9666 22.9477 25.9003 20.5756C26.5133 19.0182 27.4436 17.587 28.6499 16.3804C30.9583 14.0722 34.0891 12.7754 37.3535 12.7754C40.6179 12.7754 43.7487 14.0722 46.057 16.3804C48.3653 18.6888 49.662 21.8196 49.662 25.084H61.9707Z" fill="url(#paint0_linear_240_397)"/>
<path d="M47.7891 34.5044C49.0262 31.5177 49.663 28.3165 49.663 25.0839H61.9703C61.9703 38.6795 50.9488 49.7009 37.3531 49.7009C35.224 49.7009 33.1578 49.4306 31.1875 48.9225C32.3023 48.6353 33.3981 48.2695 34.4664 47.8271C37.4531 46.5899 40.1668 44.7767 42.4528 42.4908C44.7387 40.2048 46.5521 37.4911 47.7891 34.5044Z" fill="#FBCF8E"/>
<path d="M0.428711 25.0839C0.42871 28.3167 1.06545 31.5178 2.30258 34.5045C3.53971 37.4912 5.35299 40.205 7.63891 42.4909C9.92482 44.7767 12.6386 46.5901 15.6253 47.8272C18.6119 49.0644 21.8131 49.701 25.0459 49.701C28.2786 49.701 31.4797 49.0644 34.4664 47.8272C37.4531 46.5901 40.1669 44.7767 42.4528 42.4909C44.7388 40.205 46.552 37.4912 47.7891 34.5045C49.0263 31.5178 49.6631 28.3167 49.6631 25.0839H41.9701C39.4209 25.0839 37.4328 27.2202 36.4991 29.5921C36.4726 29.6597 36.4453 29.727 36.4175 29.7943C35.7989 31.2876 34.8923 32.6445 33.7493 33.7874C32.6064 34.9303 31.2494 35.8371 29.7562 36.4556C28.2629 37.0742 26.6623 37.3925 25.0459 37.3925C23.4295 37.3925 21.8289 37.0742 20.3356 36.4556C18.8422 35.8371 17.4854 34.9303 16.3424 33.7874C15.1994 32.6445 14.2928 31.2876 13.6742 29.7943C13.0557 28.3008 12.7373 26.7003 12.7373 25.0839H0.428711Z" fill="url(#paint1_linear_240_397)"/>
<path d="M0.431641 25.084C0.431641 11.4882 11.4531 0.466797 25.0487 0.466797C27.1774 0.466797 29.2429 0.736961 31.213 1.24489C26.9857 2.3339 23.086 4.53777 19.9466 7.67701C15.33 12.2936 12.7365 18.5551 12.7365 25.084H0.431641Z" fill="#73E5E2"/>
<defs>
<linearGradient id="paint0_linear_240_397" x1="61.9707" y1="12.7754" x2="12.7363" y2="12.7754" gradientUnits="userSpaceOnUse">
<stop stop-color="#73E5E2"/>
<stop offset="1" stop-color="#394F87"/>
</linearGradient>
<linearGradient id="paint1_linear_240_397" x1="0.428713" y1="37.3925" x2="49.6631" y2="37.3925" gradientUnits="userSpaceOnUse">
<stop stop-color="#FBDC8E"/>
<stop offset="1" stop-color="#FB958E"/>
</linearGradient>
</defs>
</svg>
