<svg width="718" height="718" viewBox="0 0 718 718" fill="none" xmlns="http://www.w3.org/2000/svg">
<path d="M172.344 107.065H125.667V153.741H172.344V107.065Z" fill="white" stroke="#1A1A1A" stroke-width="2" stroke-linecap="round" stroke-linejoin="round"/>
<path d="M149.006 115.039V145.766" stroke="#1A1A1A" stroke-width="2" stroke-linecap="round" stroke-linejoin="round"/>
<path d="M133.697 130.403H163.93" stroke="#1A1A1A" stroke-width="2" stroke-linecap="round" stroke-linejoin="round"/>
<path d="M538.053 271.485C547.592 277.249 558.728 279.542 569.592 281.919C580.455 284.296 591.57 286.972 600.73 293.334C609.889 299.695 616.779 310.621 615.279 321.746C613.619 334.056 602.693 342.806 591.889 348.742C581.964 354.195 571.241 358.567 562.858 366.219C554.476 373.872 548.816 386.06 552.672 396.788C555.293 404.08 561.656 409.223 567.734 413.965C573.813 418.707 580.187 423.826 582.85 431.103C585.512 438.38 582.566 448.313 575.109 450.168" stroke="#1A1A1A" stroke-width="2" stroke-linecap="round" stroke-linejoin="round"/>
<path d="M537.779 254.381C547.214 267.241 563.314 273.378 578.996 275.681C594.677 277.983 610.681 277.12 626.378 279.312C642.076 281.505 658.224 287.391 667.922 300.05C675.444 309.869 677.989 324.399 671.262 334.789C667.125 341.18 660.238 345.151 653.417 348.442C646.595 351.733 639.429 354.682 633.848 359.832C628.268 364.983 624.533 373.035 626.804 380.318C628.549 385.912 633.329 389.867 637.069 394.353C649.908 409.753 649.999 434.494 637.274 449.99" stroke="#1A1A1A" stroke-width="2" stroke-linecap="round" stroke-linejoin="round"/>
<path d="M440.289 682.316C510.927 682.316 568.19 667.216 568.19 648.59C568.19 629.963 510.927 614.863 440.289 614.863C369.652 614.863 312.389 629.963 312.389 648.59C312.389 667.216 369.652 682.316 440.289 682.316Z" fill="white" stroke="#1A1A1A" stroke-width="2" stroke-linecap="round" stroke-linejoin="round"/>
<path d="M542.831 56.2943C542.831 53.5877 542.298 50.9075 541.262 48.4069C540.226 45.9063 538.708 43.6342 536.794 41.7203C534.88 39.8065 532.608 38.2883 530.108 37.2525C527.607 36.2167 524.927 35.6836 522.22 35.6837H237.634C234.928 35.6836 232.247 36.2167 229.747 37.2525C227.246 38.2883 224.974 39.8065 223.06 41.7203C221.146 43.6342 219.628 45.9063 218.592 48.4069C217.557 50.9075 217.023 53.5877 217.023 56.2943V58.6725H542.831V56.2943Z" fill="#1C0311" stroke="#1A1A1A" stroke-width="2.251" stroke-linecap="round" stroke-linejoin="round"/>
<path d="M217.023 58.6725V281.279C217.023 283.985 217.557 286.665 218.592 289.166C219.628 291.667 221.146 293.939 223.06 295.853C224.974 297.766 227.246 299.285 229.747 300.32C232.247 301.356 234.928 301.889 237.634 301.889H522.22C524.927 301.889 527.607 301.356 530.108 300.32C532.608 299.285 534.881 297.766 536.794 295.853C538.708 293.939 540.226 291.667 541.262 289.166C542.298 286.665 542.831 283.985 542.831 281.279V58.6725H217.023Z" fill="white" stroke="#1A1A1A" stroke-width="2" stroke-linecap="round" stroke-linejoin="round"/>
<path d="M355.566 165.69H252.322" stroke="#1A1A1A" stroke-width="2" stroke-linecap="round" stroke-linejoin="round" stroke-dasharray="27.83 27.83"/>
<path d="M245.76 156.308V85.5906" stroke="#1A1A1A" stroke-width="2" stroke-linecap="round" stroke-linejoin="round" stroke-dasharray="25.69 25.69"/>
<path d="M255.652 79.2832H358.896" stroke="#1A1A1A" stroke-width="2" stroke-linecap="round" stroke-linejoin="round" stroke-dasharray="27.83 27.83"/>
<path d="M365.46 88.6653V159.382" stroke="#1A1A1A" stroke-width="2" stroke-linecap="round" stroke-linejoin="round" stroke-dasharray="25.69 25.69"/>
<path d="M514.095 275.143V278.375H510.862" stroke="#1A1A1A" stroke-width="4.502" stroke-linecap="round" stroke-linejoin="round"/>
<path d="M504.201 278.375H400.957" stroke="#1A1A1A" stroke-width="4.502" stroke-linecap="round" stroke-linejoin="round" stroke-dasharray="27.83 27.83"/>
<path d="M397.627 278.375H394.395V275.143" stroke="#1A1A1A" stroke-width="4.502" stroke-linecap="round" stroke-linejoin="round"/>
<path d="M394.395 268.5V85.8372" stroke="#1A1A1A" stroke-width="2" stroke-linecap="round" stroke-linejoin="round" stroke-dasharray="27.75 27.75"/>
<path d="M404.288 79.2832H507.532" stroke="#1A1A1A" stroke-width="2" stroke-linecap="round" stroke-linejoin="round" stroke-dasharray="27.83 27.83"/>
<path d="M514.096 89.1581V271.821" stroke="#1A1A1A" stroke-width="2" stroke-linecap="round" stroke-linejoin="round" stroke-dasharray="27.75 27.75"/>
<path d="M505 89H403V269H505V89Z" fill="white" stroke="#1A1A1A" stroke-width="2" stroke-linecap="round" stroke-linejoin="round"/>
<path d="M355.566 278.375H252.322" stroke="#1A1A1A" stroke-width="2" stroke-linecap="round" stroke-linejoin="round" stroke-dasharray="27.83 27.83"/>
<path d="M245.76 268.557V192.826" stroke="#1A1A1A" stroke-width="2" stroke-linecap="round" stroke-linejoin="round" stroke-dasharray="27.51 27.51"/>
<path d="M255.652 186.3H358.896" stroke="#1A1A1A" stroke-width="2" stroke-linecap="round" stroke-linejoin="round" stroke-dasharray="27.83 27.83"/>
<path d="M365.737 196.343L365.737 246.391" stroke="#1A1A1A" stroke-linecap="round" stroke-linejoin="round" stroke-dasharray="27.51 27.51"/>
<path d="M352.263 196.343H258.903V268.528H352.263V196.343Z" fill="white" stroke="#1A1A1A" stroke-width="2" stroke-linecap="round" stroke-linejoin="round"/>
<path d="M321.748 144.548C313.226 148.496 305.582 153.032 305.582 153.032C305.582 153.032 297.94 148.496 289.418 144.548C280.892 140.599 281.04 136.577 281.04 136.577V104.18C281.04 95.6982 293.824 93.3593 293.824 93.3593H317.339C317.339 93.3593 330.126 95.6982 330.126 104.18V136.577C330.126 136.577 330.271 140.599 321.748 144.548Z" fill="white" stroke="#1A1A1A" stroke-linecap="round" stroke-linejoin="round"/>
<path d="M306.064 146.295C303.039 144.597 297.809 141.764 292.144 139.15C288.285 137.369 287.113 135.866 286.815 135.38V103.728C286.815 100.639 292.715 98.6835 294.883 98.1716H317.247C319.39 98.676 325.314 100.634 325.314 103.728V135.378C325.016 135.864 323.844 137.369 319.985 139.15C314.32 141.764 309.09 144.597 306.064 146.295Z" fill="white" stroke="#1A1A1A" stroke-linecap="round" stroke-linejoin="round"/>
<path d="M247.94 52.4631C251.442 52.4631 254.281 49.6237 254.281 46.1212C254.281 42.6187 251.442 39.7794 247.94 39.7794C244.437 39.7794 241.598 42.6187 241.598 46.1212C241.598 49.6237 244.437 52.4631 247.94 52.4631Z" fill="white" stroke="#1A1A1A" stroke-width="4.502" stroke-linecap="round" stroke-linejoin="round"/>
<path d="M271.722 52.4631C275.224 52.4631 278.064 49.6237 278.064 46.1212C278.064 42.6187 275.224 39.7794 271.722 39.7794C268.219 39.7794 265.38 42.6187 265.38 46.1212C265.38 49.6237 268.219 52.4631 271.722 52.4631Z" fill="white" stroke="#1A1A1A" stroke-width="4.502" stroke-linecap="round" stroke-linejoin="round"/>
<path d="M295.502 52.4631C299.005 52.4631 301.844 49.6237 301.844 46.1212C301.844 42.6187 299.005 39.7794 295.502 39.7794C291.999 39.7794 289.16 42.6187 289.16 46.1212C289.16 49.6237 291.999 52.4631 295.502 52.4631Z" fill="white" stroke="#1A1A1A" stroke-width="4.502" stroke-linecap="round" stroke-linejoin="round"/>
<path d="M121.148 608.993H563.034C621.268 594.577 626.171 541.713 606.469 508.09C589.584 479.275 559.051 463.494 512.344 479.762C471.779 432.52 404.037 410.879 343.744 424.909C280.209 439.693 252.249 487.735 247.874 495.567C235.993 482.505 197.251 442.386 165.227 449.082C129.897 456.468 107.443 519.848 121.148 608.993Z" stroke="#1A1A1A" stroke-width="2" stroke-linecap="round" stroke-linejoin="round"/>
<path d="M164.002 609.114H541.942C557.178 585.347 556.041 556.87 540.79 539.979C528.687 526.574 511.582 524.771 506.222 524.424C502.118 513.014 492.01 490.725 469.35 477.757C433.648 457.326 380.939 468.13 342.602 507.716C337.411 488.769 318 478.447 301.697 483.519C288.092 487.75 278.511 502.122 279.804 518.086C244.804 494.786 199.812 500.397 175.524 527.88C156.83 549.035 152.481 580.796 164.002 609.114Z" fill="white" stroke="#1A1A1A" stroke-linecap="round" stroke-linejoin="round"/>
<path d="M77.96 609.241H707.413" stroke="#1A1A1A" stroke-width="4" stroke-linecap="round" stroke-linejoin="round"/>
<path d="M445.232 619.201C443.834 616.261 442.465 614.012 442.465 614.012L422.876 619.581C422.876 619.581 421.476 620.865 419.361 622.933C426.857 627.255 437.643 624.325 445.232 619.201Z" fill="#1C0311" stroke="#1A1A1A" stroke-width="2.251" stroke-linecap="round" stroke-linejoin="round"/>
<path d="M419.361 622.933C412.249 629.887 397.026 645.731 399.542 651.652C402.807 659.334 414.33 654.437 422.396 649.155C430.461 643.874 448.705 633.504 448.129 627.935C447.852 625.254 446.529 621.93 445.232 619.201C437.642 624.325 426.856 627.255 419.361 622.933Z" fill="white" stroke="#1A1A1A" stroke-width="2" stroke-linecap="round" stroke-linejoin="round"/>
<path d="M482.152 621.217C481.736 618.039 481.385 615.9 481.385 615.9L463.333 619.357C462.183 620.79 461.12 622.291 460.149 623.852C466.641 628.903 476.228 626.147 482.152 621.217Z" fill="#1C0311" stroke="#1A1A1A" stroke-width="2.251" stroke-linecap="round" stroke-linejoin="round"/>
<path d="M482.152 621.217C476.228 626.147 466.641 628.903 460.149 623.852C458.774 626.047 457.285 628.82 456.42 631.648C454.499 637.921 445.537 665.575 453.859 667.752C462.181 669.928 473.32 662.63 476.264 652.772C479.209 642.914 483.818 641.122 483.306 632.8C483.049 628.633 482.568 624.403 482.152 621.217ZM392.407 357.347C392.407 357.347 347.788 430.515 348.94 461.05C350.092 491.584 414.426 618.717 420.956 621.789C427.485 624.862 440.16 619.677 444.385 615.836C448.61 611.995 441.504 592.599 438.432 583.189C435.359 573.779 422.364 517.83 402.648 486.591C419.548 462.522 438.496 430.771 441.312 407.47C444.129 384.169 446.53 354.845 446.53 354.845" fill="white"/>
<path d="M392.407 357.347C392.407 357.347 347.788 430.515 348.94 461.05C350.092 491.584 414.426 618.717 420.956 621.789C427.485 624.862 440.16 619.677 444.385 615.836C448.61 611.995 441.504 592.599 438.432 583.189C435.359 573.779 422.364 517.83 402.648 486.591C419.548 462.522 438.496 430.771 441.312 407.47C444.129 384.169 446.53 354.845 446.53 354.845M482.152 621.217C476.228 626.147 466.641 628.903 460.149 623.852C458.774 626.047 457.285 628.82 456.42 631.648C454.499 637.921 445.537 665.575 453.859 667.752C462.181 669.928 473.32 662.63 476.264 652.772C479.209 642.914 483.818 641.122 483.306 632.8C483.049 628.633 482.568 624.403 482.152 621.217Z" stroke="#1A1A1A" stroke-width="2" stroke-linecap="round" stroke-linejoin="round"/>
<path d="M432.862 396.971C432.862 396.971 447.365 485.823 452.404 509.124C454.114 538.315 457.187 614.62 459.491 618.973C461.796 623.326 481 627.167 484.073 613.596C487.146 600.025 494.827 565.457 492.523 531.913C491.243 504.003 502.253 476.093 504.814 465.339C507.374 454.584 523.762 384.425 501.229 348.577L430.045 349.601" fill="white"/>
<path d="M432.862 396.971C432.862 396.971 447.365 485.823 452.404 509.124C454.114 538.315 457.187 614.62 459.491 618.973C461.796 623.326 481 627.167 484.073 613.596C487.146 600.025 494.827 565.457 492.523 531.913C491.243 504.003 502.253 476.093 504.814 465.339C507.374 454.584 523.762 384.425 501.229 348.577L430.045 349.601" stroke="#1A1A1A" stroke-width="2" stroke-linecap="round" stroke-linejoin="round"/>
<path d="M423.08 366.549C440.038 365.741 449.094 368.724 457.766 367.831C466.437 366.938 500.27 364.129 505 353.374C502.022 344.176 393.212 352.342 393.212 352.342L388 361.582C388 361.582 390.707 370.634 423.08 366.549Z" fill="#1C0311"/>
<path d="M393.429 306.583C393.429 306.583 394.71 326.3 390.613 335.518C386.516 344.736 382.163 365.732 399.319 365.22C416.475 364.708 433.726 362.454 443.905 365.229C454.083 368.005 497.773 363.492 505.454 349.665C513.136 335.838 519.473 291.092 517.553 281.49C515.633 271.888 507.052 226.181 490.506 222.341C473.959 218.5 413.658 226.181 413.658 226.181" fill="#543BF5"/>
<path d="M393.429 306.583C393.429 306.583 394.71 326.3 390.613 335.518C386.516 344.736 382.163 365.732 399.319 365.22C416.475 364.708 433.726 362.454 443.905 365.229C454.083 368.005 497.773 363.492 505.454 349.665C513.136 335.838 519.473 291.092 517.553 281.49C515.633 271.888 507.052 226.181 490.506 222.341C473.959 218.5 413.658 226.181 413.658 226.181" stroke="#1A1A1A" stroke-linecap="round" stroke-linejoin="round"/>
<path d="M438.423 303.564C495.46 319.888 525.235 289.94 529.076 256.908C532.917 223.877 503.918 210.05 493.74 204.289C483.562 198.527 472.999 195.647 455.908 196.031C438.816 196.415 423.132 198.527 423.132 198.527C423.132 198.527 366.544 220.036 363.727 272.528C360.911 325.019 423.901 320.154 454.627 292.5C472.807 278.673 472.039 279.857 473.191 275.248C474.344 270.639 477.224 247.594 467.814 253.259C458.404 258.925 441.889 281.298 413.082 278.993L400.407 276.497C400.407 276.497 397.623 277.073 398.487 275.44C399.351 273.808 404.296 270.975 404.968 267.999C405.64 265.022 406.025 259.789 402.616 259.453C404.2 257.628 408.041 258.589 412.458 261.421C416.875 264.254 435.935 270.671 442.401 271.824" fill="#543BF5"/>
<path d="M438.423 303.564C495.46 319.888 525.235 289.94 529.076 256.908C532.917 223.877 503.918 210.05 493.74 204.289C483.562 198.527 472.999 195.647 455.908 196.031C438.816 196.415 423.132 198.527 423.132 198.527C423.132 198.527 366.544 220.036 363.727 272.528C360.911 325.019 423.901 320.154 454.627 292.5C472.807 278.673 472.039 279.857 473.191 275.248C474.344 270.639 477.224 247.594 467.814 253.259C458.404 258.925 441.889 281.298 413.082 278.993L400.407 276.497C400.407 276.497 397.623 277.073 398.487 275.44C399.351 273.808 404.296 270.975 404.968 267.999C405.64 265.022 406.025 259.789 402.616 259.453C404.2 257.628 408.041 258.589 412.458 261.421C416.875 264.254 435.935 270.671 442.401 271.824" stroke="#1A1A1A" stroke-width="2" stroke-linecap="round" stroke-linejoin="round"/>
<path d="M451.81 183.036C419.675 182.908 437.983 142.195 437.983 142.195L466.79 141.299L473.959 162.167L467.302 174.074C467.302 174.074 463.077 179.067 464.101 186.749C465.125 194.43 473.959 203.776 473.959 203.776C473.959 203.776 456.291 213.891 434.782 203.136C437.983 195.711 441.44 188.669 442.158 181.314" fill="white"/>
<path d="M451.81 183.036C419.675 182.908 437.983 142.195 437.983 142.195L466.79 141.299L473.959 162.167L467.302 174.074C467.302 174.074 463.077 179.067 464.101 186.749C465.125 194.43 473.959 203.776 473.959 203.776C473.959 203.776 456.291 213.891 434.782 203.136C437.983 195.711 441.44 188.669 442.158 181.314" stroke="#1A1A1A" stroke-linecap="round" stroke-linejoin="round"/>
<path d="M441.68 184.501C441.68 184.501 449.89 184.62 451.81 183.036C444.753 182.676 442.064 181.669 442.064 181.669L441.68 184.501ZM428.157 126.031C428.157 126.319 419.035 148.98 445.729 149.268C454.755 149.556 456.675 148.116 458.596 145.908C460.516 143.699 464.645 148.404 461.572 151.765C464.933 152.725 468.39 151.573 468.294 158.102C468.198 164.632 463.109 165.304 461.092 165.88C463.397 172.793 466.373 175.962 468.774 175.962C473.959 174.906 475.207 175.002 477.032 162.711C478.856 150.421 481.737 143.219 473.959 135.633C466.949 128.72 461.212 126.799 453.374 128.912C445.537 131.024 439.199 133.137 430.365 124.879C428.445 123.342 428.157 126.031 428.157 126.031Z" fill="#1C0311" stroke="#1A1A1A" stroke-width="2.251" stroke-linecap="round" stroke-linejoin="round"/>
<path d="M473.19 275.248C494.699 267.855 490.09 238.088 490.09 238.088L473.19 275.248Z" fill="white"/>
<path d="M473.19 275.248C494.699 267.855 490.09 238.088 490.09 238.088" stroke="#1A1A1A" stroke-linecap="round" stroke-linejoin="round"/>
<path d="M403.16 262.093C403.16 262.093 393.365 257.548 384.467 262.669C375.569 267.791 375.89 276.497 378.898 280.017C381.907 283.538 388.884 279.761 390.933 278.033C392.981 276.304 393.685 275.024 394.966 274.896C396.246 274.768 400.919 275.216 400.919 275.216C400.919 275.216 406.268 270.823 407.769 265.422C408.409 263.118 403.16 262.093 403.16 262.093Z" fill="white" stroke="#1A1A1A" stroke-linecap="round" stroke-linejoin="round"/>
<path fill-rule="evenodd" clip-rule="evenodd" d="M316.005 115.874H318.441V133.561H293.552V115.874H295.986V113.964C295.985 112.649 296.243 111.346 296.746 110.131C297.248 108.916 297.985 107.811 298.915 106.881C299.845 105.951 300.948 105.213 302.163 104.709C303.378 104.206 304.68 103.946 305.996 103.946C307.311 103.946 308.613 104.206 309.828 104.709C311.043 105.213 312.147 105.951 313.076 106.881C314.006 107.811 314.743 108.916 315.246 110.131C315.748 111.346 316.006 112.649 316.005 113.964V115.874ZM299.666 115.874L299.666 113.964C299.666 112.286 300.334 110.676 301.521 109.49C302.708 108.303 304.317 107.637 305.996 107.637C307.674 107.637 309.284 108.303 310.471 109.49C311.658 110.676 312.325 112.286 312.326 113.964V115.874H299.666Z" fill="#FFC000"/>
<path d="M473.191 255.052C473.191 255.052 481.849 250.507 489.643 255.116C484.459 270.354 480.191 272.603 478.824 272.784L473.703 270.543C475.404 265.676 475.037 260.481 473.191 255.052Z" fill="white" stroke="#1A1A1A" stroke-linecap="round" stroke-linejoin="round"/>
<path d="M473.062 380.584C473.062 380.584 478.952 399.02 498.668 401.324" stroke="#1A1A1A" stroke-linecap="round" stroke-linejoin="round"/>
<path d="M134.08 232.869V220.745H121.573C121.084 218.974 120.378 217.269 119.471 215.671L128.315 206.828L119.74 198.253L110.897 207.097C109.299 206.19 107.594 205.484 105.823 204.995V192.493H93.7046V204.995C91.9332 205.484 90.2288 206.19 88.6303 207.097L79.7872 198.253L71.2128 206.828L80.056 215.671C79.1496 217.269 78.4439 218.974 77.9549 220.745H65.4473V232.869H77.9549C78.4438 234.64 79.1495 236.345 80.056 237.943L71.2128 246.786L79.7872 255.361L88.6303 246.518C90.2288 247.424 91.9332 248.13 93.7046 248.619V261.121H105.823V248.619C107.594 248.13 109.299 247.424 110.897 246.518L119.74 255.361L128.315 246.786L119.471 237.943C120.378 236.345 121.084 234.64 121.573 232.869H134.08ZM110.261 232.869C109.197 234.712 107.666 236.243 105.823 237.307C104.907 237.84 103.923 238.248 102.899 238.519C100.843 239.068 98.6791 239.068 96.6231 238.519C95.6003 238.248 94.6187 237.84 93.7047 237.307C90.9219 235.695 88.889 233.049 88.0488 229.945C87.7789 228.921 87.6425 227.866 87.6428 226.807C87.6416 225.748 87.7799 224.693 88.0543 223.669C88.3256 222.645 88.7334 221.661 89.2667 220.745C90.3324 218.903 91.8627 217.373 93.7047 216.307C94.6187 215.774 95.6003 215.366 96.6231 215.095C98.6791 214.546 100.843 214.546 102.899 215.095C103.923 215.366 104.907 215.774 105.823 216.307C107.665 217.373 109.195 218.903 110.261 220.745C110.794 221.661 111.202 222.645 111.473 223.669C111.748 224.693 111.886 225.748 111.885 226.807C111.885 227.866 111.749 228.921 111.479 229.945C111.203 230.969 110.794 231.952 110.261 232.869Z" fill="white" stroke="#1A1A1A" stroke-width="2" stroke-linecap="round" stroke-linejoin="round"/>
<path d="M148.237 369.112C167.404 369.112 182.942 353.574 182.942 334.407C182.942 315.239 167.404 299.702 148.237 299.702C129.07 299.702 113.532 315.239 113.532 334.407C113.532 353.574 129.07 369.112 148.237 369.112Z" fill="white" stroke="#FFC000" stroke-width="4.502" stroke-linecap="round" stroke-linejoin="round"/>
<path d="M125.468 333.601L145.569 351.269C145.993 351.642 146.491 351.921 147.03 352.09C147.569 352.259 148.137 352.313 148.698 352.248C149.259 352.184 149.801 352.002 150.287 351.716C150.774 351.429 151.195 351.044 151.524 350.584L183.339 306.094C183.961 305.222 184.212 304.139 184.036 303.082C183.86 302.025 183.272 301.082 182.401 300.459C181.529 299.836 180.446 299.584 179.389 299.759C178.333 299.934 177.389 300.522 176.765 301.393L147.548 342.249L130.804 327.531C129.999 326.824 128.946 326.466 127.877 326.535C126.808 326.605 125.811 327.095 125.103 327.9C124.396 328.705 124.037 329.757 124.106 330.826C124.174 331.895 124.665 332.893 125.469 333.601L125.468 333.601Z" fill="#1A1A1A"/>
<path d="M252.937 528.129C247.433 522.996 241.364 516.546 242.654 509.131C243.627 503.536 248.503 499.621 251.948 495.105C256.711 488.862 258.936 480.548 257.137 472.905C255.338 465.261 249.259 458.586 241.611 456.81C233.962 455.034 225.173 458.716 221.694 465.756C218.968 471.274 219.587 477.761 219.025 483.889C218.462 490.017 215.838 496.896 209.963 498.726C205.055 500.256 199.859 497.63 195.674 494.646C191.49 491.661 187.336 488.101 182.238 487.447C176.255 486.68 170.27 490.395 167.241 495.61C164.211 500.826 163.79 507.233 164.852 513.171C165.914 519.108 168.346 524.7 170.759 530.228L154.896 548.4L149.69 608.993H204.192C209.811 606.456 215.058 603.122 220.266 599.801C224.569 597.056 228.872 594.311 233.175 591.567C236.087 589.71 239.317 587.337 239.511 583.888C239.904 576.895 227.992 574.19 228.188 567.188C228.267 564.335 230.572 561.937 233.2 560.82C235.827 559.703 238.754 559.595 241.603 559.413C245.969 559.134 250.414 558.618 254.382 556.775C258.35 554.932 261.819 551.548 262.76 547.275C264.38 539.926 258.442 533.261 252.937 528.129Z" fill="#543BF5" stroke="#1A1A1A" stroke-width="2.251" stroke-linecap="round" stroke-linejoin="round"/>
<path d="M229.868 494.249C229.868 494.249 224.105 527.756 206.19 544.24C188.275 560.724 185.194 582.805 185.964 592.561C186.734 602.317 177.748 608.993 177.748 608.993M209.071 578.183C209.071 578.183 192.993 572.653 186.398 582.35M188.275 535.531C188.275 535.531 195.878 539.223 195.414 557.291M231.665 527.603C231.665 527.603 226.239 535.522 212.648 536.954" stroke="white" stroke-width="3" stroke-linecap="round" stroke-linejoin="round"/>
<path d="M173.985 595.025C179.641 583.926 173.954 575.116 164.559 568.995C155.279 560.366 162.275 554.703 170.528 549.457C185.359 536.505 170.599 512.911 152.448 520.662C145.925 523.819 138.351 532.874 130.744 527.581C126.373 524.119 127.816 517.366 128.283 511.809C129.735 497.875 119.23 478.013 103.34 480.563C96.2619 482.335 92.2285 489.966 85.6439 493.109C66.188 501.558 51.0962 474.172 32.1302 475.954C-4.63876 484.198 7.02617 548.491 59.6887 540.552C63.8962 540.899 68.2978 542.49 70.6491 545.996C78.2934 557.989 58.7346 572.189 66.0438 584.236C72.4159 593.394 85.0665 588.668 94.3204 588.477C107.305 588.077 112.485 599.414 105.305 608.993H155.744C163.306 606.424 170.129 602.3 173.985 595.025Z" fill="white" stroke="#1A1A1A" stroke-linecap="round" stroke-linejoin="round"/>
<path d="M122.482 608.993L126.526 601.29C144.242 540.056 51.4268 508.09 51.4268 508.09M134.999 553.15C134.999 553.15 137.126 566.813 127.526 574.809L134.999 553.15ZM95.8444 508.09C96.1012 508.732 103.635 521.365 97.4932 533.15L95.8444 508.09ZM96.743 551.868C96.743 551.868 112.971 549.989 118.85 555.228L96.743 551.868ZM55.5347 517.59C55.5347 517.59 64.3788 520.425 72.3449 517.338L55.5347 517.59Z" fill="white"/>
<path d="M122.482 608.993L126.526 601.29C144.242 540.056 51.4268 508.09 51.4268 508.09M134.999 553.15C134.999 553.15 137.126 566.813 127.526 574.809M95.8444 508.09C96.1012 508.732 103.635 521.365 97.4932 533.15M96.743 551.868C96.743 551.868 112.971 549.989 118.85 555.228M55.5347 517.59C55.5347 517.59 64.3788 520.425 72.3449 517.338" stroke="#1A1A1A" stroke-width="2" stroke-linecap="round" stroke-linejoin="round"/>
<path d="M621.901 454.925H556.903V461.174H621.901V454.925Z" fill="#1C0311" stroke="#1A1A1A" stroke-width="2.251" stroke-linecap="round" stroke-linejoin="round"/>
<path d="M621.901 461.174H556.903V519.616H621.901V461.174Z" fill="white" stroke="#1A1A1A" stroke-width="2" stroke-linecap="round" stroke-linejoin="round"/>
<path d="M621.901 519.617H556.903V609.142H621.901V519.617Z" fill="white" stroke="#1A1A1A" stroke-width="2" stroke-linecap="round" stroke-linejoin="round"/>
<path d="M621.901 443.957H556.903V454.925H621.901V443.957Z" fill="white" stroke="#1A1A1A" stroke-width="2" stroke-linecap="round" stroke-linejoin="round"/>
<path d="M569.032 483.952C570.055 483.952 570.884 483.123 570.884 482.1C570.884 481.077 570.055 480.248 569.032 480.248C568.01 480.248 567.181 481.077 567.181 482.1C567.181 483.123 568.01 483.952 569.032 483.952Z" fill="white" stroke="#1A1A1A" stroke-linecap="round" stroke-linejoin="round"/>
<path d="M583.269 483.952C584.291 483.952 585.12 483.123 585.12 482.1C585.12 481.077 584.291 480.248 583.269 480.248C582.246 480.248 581.417 481.077 581.417 482.1C581.417 483.123 582.246 483.952 583.269 483.952Z" fill="white" stroke="#1A1A1A" stroke-linecap="round" stroke-linejoin="round"/>
<path d="M597.504 483.952C598.527 483.952 599.356 483.123 599.356 482.1C599.356 481.077 598.527 480.248 597.504 480.248C596.481 480.248 595.652 481.077 595.652 482.1C595.652 483.123 596.481 483.952 597.504 483.952Z" fill="white" stroke="#1A1A1A" stroke-linecap="round" stroke-linejoin="round"/>
<path d="M611.739 483.952C612.762 483.952 613.591 483.123 613.591 482.1C613.591 481.077 612.762 480.248 611.739 480.248C610.717 480.248 609.888 481.077 609.888 482.1C609.888 483.123 610.717 483.952 611.739 483.952Z" fill="white" stroke="#1A1A1A" stroke-linecap="round" stroke-linejoin="round"/>
<path d="M597.504 506.921C598.527 506.921 599.356 506.092 599.356 505.069C599.356 504.046 598.527 503.217 597.504 503.217C596.481 503.217 595.652 504.046 595.652 505.069C595.652 506.092 596.481 506.921 597.504 506.921Z" fill="white" stroke="#1A1A1A" stroke-linecap="round" stroke-linejoin="round"/>
<path d="M611.739 506.921C612.762 506.921 613.591 506.092 613.591 505.069C613.591 504.046 612.762 503.217 611.739 503.217C610.717 503.217 609.888 504.046 609.888 505.069C609.888 506.092 610.717 506.921 611.739 506.921Z" fill="white" stroke="#1A1A1A" stroke-linecap="round" stroke-linejoin="round"/>
<path d="M611.739 528.997C612.762 528.997 613.591 528.167 613.591 527.145C613.591 526.122 612.762 525.293 611.739 525.293C610.717 525.293 609.888 526.122 609.888 527.145C609.888 528.167 610.717 528.997 611.739 528.997Z" fill="white" stroke="#1A1A1A" stroke-linecap="round" stroke-linejoin="round"/>
<path d="M599.356 525.617H567.181V528.673H599.356V525.617Z" fill="#FFC000"/>
<path d="M611.739 547.237C612.762 547.237 613.591 546.408 613.591 545.385C613.591 544.362 612.762 543.533 611.739 543.533C610.717 543.533 609.888 544.362 609.888 545.385C609.888 546.408 610.717 547.237 611.739 547.237Z" fill="white" stroke="#1A1A1A" stroke-linecap="round" stroke-linejoin="round"/>
<path d="M599.356 543.857H567.181V546.913H599.356V543.857Z" fill="#FFC000"/>
<path d="M611.739 565.477C612.762 565.477 613.591 564.648 613.591 563.625C613.591 562.603 612.762 561.773 611.739 561.773C610.717 561.773 609.888 562.603 609.888 563.625C609.888 564.648 610.717 565.477 611.739 565.477Z" fill="white" stroke="#1A1A1A" stroke-linecap="round" stroke-linejoin="round"/>
<path d="M599.356 562.097H567.181V565.153H599.356V562.097Z" fill="#FFC000"/>
<path d="M611.739 583.717C612.762 583.717 613.591 582.888 613.591 581.865C613.591 580.843 612.762 580.014 611.739 580.014C610.717 580.014 609.888 580.843 609.888 581.865C609.888 582.888 610.717 583.717 611.739 583.717Z" fill="white" stroke="#1A1A1A" stroke-linecap="round" stroke-linejoin="round"/>
<path d="M599.356 580.338H567.181V583.393H599.356V580.338Z" fill="#FFC000"/>
<path d="M693.15 454.925H628.151V461.174H693.15V454.925Z" fill="#1C0311" stroke="#1A1A1A" stroke-width="2.251" stroke-linecap="round" stroke-linejoin="round"/>
<path d="M693.149 519.617H628.151V609.142H693.149V519.617Z" fill="white" stroke="#1A1A1A" stroke-width="2" stroke-linecap="round" stroke-linejoin="round"/>
<path d="M693.149 461.174H628.151V519.616H693.149V461.174Z" fill="white" stroke="#1A1A1A" stroke-width="2" stroke-linecap="round" stroke-linejoin="round"/>
<path d="M693.15 443.957H628.151V454.925H693.15V443.957Z" fill="white" stroke="#1A1A1A" stroke-width="2" stroke-linecap="round" stroke-linejoin="round"/>
<path d="M640.28 483.952C641.303 483.952 642.132 483.123 642.132 482.1C642.132 481.077 641.303 480.248 640.28 480.248C639.258 480.248 638.429 481.077 638.429 482.1C638.429 483.123 639.258 483.952 640.28 483.952Z" fill="white" stroke="#1A1A1A" stroke-linecap="round" stroke-linejoin="round"/>
<path d="M654.516 483.952C655.538 483.952 656.368 483.123 656.368 482.1C656.368 481.077 655.538 480.248 654.516 480.248C653.493 480.248 652.664 481.077 652.664 482.1C652.664 483.123 653.493 483.952 654.516 483.952Z" fill="white" stroke="#1A1A1A" stroke-linecap="round" stroke-linejoin="round"/>
<path d="M668.752 483.952C669.775 483.952 670.604 483.123 670.604 482.1C670.604 481.077 669.775 480.248 668.752 480.248C667.729 480.248 666.9 481.077 666.9 482.1C666.9 483.123 667.729 483.952 668.752 483.952Z" fill="white" stroke="#1A1A1A" stroke-linecap="round" stroke-linejoin="round"/>
<path d="M682.987 483.952C684.01 483.952 684.839 483.123 684.839 482.1C684.839 481.077 684.01 480.248 682.987 480.248C681.965 480.248 681.136 481.077 681.136 482.1C681.136 483.123 681.965 483.952 682.987 483.952Z" fill="white" stroke="#1A1A1A" stroke-linecap="round" stroke-linejoin="round"/>
<path d="M668.752 506.921C669.775 506.921 670.604 506.092 670.604 505.069C670.604 504.046 669.775 503.217 668.752 503.217C667.729 503.217 666.9 504.046 666.9 505.069C666.9 506.092 667.729 506.921 668.752 506.921Z" fill="white" stroke="#1A1A1A" stroke-linecap="round" stroke-linejoin="round"/>
<path d="M682.987 506.921C684.01 506.921 684.839 506.092 684.839 505.069C684.839 504.046 684.01 503.217 682.987 503.217C681.965 503.217 681.136 504.046 681.136 505.069C681.136 506.092 681.965 506.921 682.987 506.921Z" fill="white" stroke="#1A1A1A" stroke-linecap="round" stroke-linejoin="round"/>
<path d="M682.987 528.997C684.01 528.997 684.839 528.167 684.839 527.145C684.839 526.122 684.01 525.293 682.987 525.293C681.965 525.293 681.136 526.122 681.136 527.145C681.136 528.167 681.965 528.997 682.987 528.997Z" fill="white" stroke="#1A1A1A" stroke-linecap="round" stroke-linejoin="round"/>
<path d="M670.604 525.617H638.429V528.673H670.604V525.617Z" fill="#FFC000"/>
<path d="M682.987 547.237C684.01 547.237 684.839 546.408 684.839 545.385C684.839 544.362 684.01 543.533 682.987 543.533C681.965 543.533 681.136 544.362 681.136 545.385C681.136 546.408 681.965 547.237 682.987 547.237Z" fill="white" stroke="#1A1A1A" stroke-linecap="round" stroke-linejoin="round"/>
<path d="M670.604 543.857H638.429V546.913H670.604V543.857Z" fill="#FFC000"/>
<path d="M682.987 565.477C684.01 565.477 684.839 564.648 684.839 563.625C684.839 562.603 684.01 561.773 682.987 561.773C681.965 561.773 681.136 562.603 681.136 563.625C681.136 564.648 681.965 565.477 682.987 565.477Z" fill="white" stroke="#1A1A1A" stroke-linecap="round" stroke-linejoin="round"/>
<path d="M670.604 562.097H638.429V565.153H670.604V562.097Z" fill="#FFC000"/>
<path d="M682.987 583.717C684.01 583.717 684.839 582.888 684.839 581.865C684.839 580.843 684.01 580.014 682.987 580.014C681.965 580.014 681.136 580.843 681.136 581.865C681.136 582.888 681.965 583.717 682.987 583.717Z" fill="white" stroke="#1A1A1A" stroke-linecap="round" stroke-linejoin="round"/>
<path d="M670.604 580.338H638.429V583.393H670.604V580.338Z" fill="#FFC000"/>
<path d="M693.149 609.142H707.23V458.05L693.149 443.957V609.142Z" fill="white" stroke="#1A1A1A" stroke-width="2" stroke-linecap="round" stroke-linejoin="round"/>
<path d="M646.095 300.662C667.981 300.662 685.722 282.92 685.722 261.035C685.722 239.15 667.981 221.408 646.095 221.408C624.21 221.408 606.469 239.15 606.469 261.035C606.469 282.92 624.21 300.662 646.095 300.662Z" fill="#FFC000" stroke="#1A1A1A" stroke-width="2.251" stroke-linecap="round" stroke-linejoin="round"/>
<path d="M649.782 254.004C651.173 253.194 652.258 251.948 652.87 250.459C653.481 248.97 653.585 247.321 653.166 245.766C652.746 244.212 651.826 242.84 650.548 241.861C649.269 240.882 647.704 240.352 646.095 240.352C644.485 240.352 642.92 240.882 641.642 241.861C640.363 242.84 639.443 244.212 639.024 245.766C638.604 247.321 638.708 248.97 639.32 250.459C639.931 251.948 641.017 253.194 642.408 254.004C639.214 254.824 636.384 256.683 634.363 259.288C632.342 261.893 631.244 265.096 631.244 268.393V275.566H660.945V268.393C660.945 265.096 659.848 261.893 657.827 259.288C655.805 256.683 652.975 254.824 649.782 254.004Z" fill="white" stroke="#1A1A1A" stroke-width="2" stroke-linecap="round" stroke-linejoin="round"/>
</svg>
